<svg xmlns="http://www.w3.org/2000/svg" xmlns:xlink="http://www.w3.org/1999/xlink" viewBox="0 0 1080 1920"><defs><style>.cls-1,.cls-10,.cls-11,.cls-12,.cls-15,.cls-16,.cls-25,.cls-26,.cls-27,.cls-28,.cls-29,.cls-30,.cls-31,.cls-6,.cls-7{fill:none;}.cls-2{isolation:isolate;}.cls-3{fill:url(#radial-gradient);}.cls-4{clip-path:url(#clip-path);}.cls-5{opacity:0.91;mix-blend-mode:lighten;fill:url(#linear-gradient);}.cls-6{stroke:#730b99;}.cls-10,.cls-11,.cls-12,.cls-15,.cls-16,.cls-17,.cls-25,.cls-26,.cls-27,.cls-28,.cls-29,.cls-30,.cls-31,.cls-6,.cls-7,.cls-8{stroke-miterlimit:10;}.cls-19,.cls-6{opacity:0.5;}.cls-11,.cls-7{stroke:#a10dd1;}.cls-10,.cls-12,.cls-16,.cls-7{stroke-width:2px;}.cls-17,.cls-8{fill:#7a18a8;fill-opacity:0.2;stroke:#7316a8;}.cls-8{stroke-dasharray:4 5 4 5 4 5;}.cls-9{opacity:0.75;}.cls-10,.cls-15,.cls-16{stroke:#8016a8;}.cls-10{stroke-dasharray:20.46 10.23 20.46 10.23 20.46 10.23;}.cls-11{stroke-width:6px;}.cls-12{stroke:#9409ce;}.cls-12,.cls-23{opacity:0.35;}.cls-13{fill:#8e2fd1;opacity:0.3;}.cls-13,.cls-19{mix-blend-mode:screen;}.cls-14{fill:#7e18a8;}.cls-14,.cls-21{opacity:0.2;}.cls-15{stroke-dasharray:4 5 4 5 4 5;}.cls-16{stroke-dasharray:20.45 10.23 20.45 10.23 20.45 10.23;}.cls-17{stroke-width:3px;}.cls-18{opacity:0.85;}.cls-20{opacity:0.6;}.cls-22,.cls-24{fill:#5c59e2;}.cls-23{fill:#6e2bd8;}.cls-24{opacity:0.21;}.cls-25,.cls-26,.cls-27,.cls-28,.cls-29,.cls-30,.cls-31{stroke:#8b54e2;}.cls-26{stroke-dasharray:3.25 5.42 3.25 5.42;}.cls-27{stroke-dasharray:3.25 5.42 3.25 5.42 3.25 5.42;}.cls-28{stroke-dasharray:3.26 5.43 3.26 5.43;}.cls-29{stroke-dasharray:3.26 5.43 3.26 5.43 3.26 5.43;}.cls-30{stroke-dasharray:3.26 5.43 3.26 5.43;}.cls-31{stroke-dasharray:3.26 5.43 3.26 5.43 3.26 5.43;}.cls-32{fill:#6e00c3;opacity:0.38;}.cls-33{fill:#9e4aff;}</style><radialGradient id="radial-gradient" cx="540" cy="960" r="523.95" gradientTransform="translate(-1)" gradientUnits="userSpaceOnUse"><stop offset="0" stop-color="#401463"/><stop offset="1"/></radialGradient><clipPath id="clip-path"><rect class="cls-1" width="1080" height="1920"/></clipPath><linearGradient id="linear-gradient" x1="552" y1="1521.86" x2="552" y2="366" gradientUnits="userSpaceOnUse"><stop offset="0" stop-color="#70a"/><stop offset="1" stop-color="#225" stop-opacity="0"/></linearGradient></defs><title>BGMob</title><g class="cls-2"><g id="text"><rect class="cls-3" width="1080" height="1920"/><g class="cls-4"><path class="cls-5" d="M708,1473c.17-4.37-9-14.23-9-14,0-.23,500-1093,500-1093H-95L384,1456c-1.27,2.58-11.13,9.51-11,14,.94,31.95,70.79,44.87,130,50C592.15,1527.73,706.55,1511.26,708,1473Z"/><ellipse class="cls-6" cx="539.91" cy="1488.47" rx="266.78" ry="74.24"/><ellipse class="cls-7" cx="540.01" cy="1474.81" rx="167.61" ry="46.64"/><path class="cls-8" d="M882.79,1665.7c0,56.21-144.08,110.61-357.2,110.61s-357.06-55.91-357.06-112.12S318.07,1557,531.2,1557,882.79,1609.48,882.79,1665.7Z"/><g class="cls-9"><path class="cls-10" d="M883,1523.41c0,56-143.5,110.17-355.78,110.17s-355.64-55.68-355.64-111.67,149-106.8,361.23-106.8S883,1467.42,883,1523.41Z"/></g><g class="cls-9"><path class="cls-10" d="M882.89,1509.14c0,56-143.5,110.17-355.78,110.17s-355.64-55.68-355.64-111.67,149-106.8,361.23-106.8S882.89,1453.15,882.89,1509.14Z"/></g><g class="cls-9"><path class="cls-10" d="M883.19,1537.21c0,56-143.5,110.17-355.78,110.17s-355.64-55.68-355.64-111.67,149-106.8,361.23-106.8S883.19,1481.23,883.19,1537.21Z"/></g><path class="cls-11" d="M445.15,1513.26s-136.82-29.62-35-67.95"/><path class="cls-11" d="M683.84,1498.77s58-25.93-10.78-52.33"/><line class="cls-12" x1="171.81" y1="1487.18" x2="882.33" y2="1487.18"/><line class="cls-12" x1="539.44" y1="1603.41" x2="539.44" y2="1385.06"/><line class="cls-12" x1="275.66" y1="1570.61" x2="775.56" y2="1414.47"/><line class="cls-12" x1="778.05" y1="1571.26" x2="305.72" y2="1408.38"/><path class="cls-13" d="M882.69,1668.2h0c-1.57,58.25-131,108-340.37,108-207.5,0-369.75-51.83-373.8-109.55l.36,1.57L-17.84,1929l1107.72.06Z"/><rect class="cls-1" x="-449.13" y="689" width="1978.26" height="1112.17"/><path class="cls-14" d="M882.89,1493.33c0,56-143.5,110.17-355.78,110.17s-355.64-55.68-355.64-111.67S320.42,1385,532.7,1385,882.89,1437.34,882.89,1493.33Z"/><path class="cls-15" d="M882.89,1493.33c0,56-143.5,110.17-355.78,110.17s-355.64-55.68-355.64-111.67S320.42,1385,532.7,1385,882.89,1437.34,882.89,1493.33Z"/><g class="cls-9"><path class="cls-16" d="M898.52,1667.14c0,63.68-150,125.3-371.78,125.3s-371.63-63.33-371.63-127S310.76,1544,532.58,1544,898.52,1603.46,898.52,1667.14Z"/></g><path class="cls-17" d="M1013.38,1542.16c0,81-196.64,159.29-487.53,159.29S38.51,1620.93,38.51,1540s204.11-154.42,495-154.42S1013.38,1461.2,1013.38,1542.16Z"/><g class="cls-18"><g class="cls-19"><g class="cls-20"><g class="cls-21"><polygon class="cls-22" points="582.05 544.67 540.75 588.81 481.9 575.11 464.35 517.26 505.65 473.12 564.5 486.83 582.05 544.67"/></g></g><polygon class="cls-23" points="958.6 645.65 882.34 623.62 863.3 546.52 920.53 491.46 996.79 513.49 1015.83 590.59 958.6 645.65"/><polygon class="cls-24" points="1001.23 498.13 924.97 476.09 905.93 398.99 963.16 343.93 1039.42 365.97 1058.46 443.06 1001.23 498.13"/><polyline class="cls-25" points="605.5 474.3 604.42 475.34 602.98 474.92"/><line class="cls-26" x1="597.77" y1="473.42" x2="583.7" y2="469.35"/><line class="cls-27" x1="581.09" y1="468.6" x2="508.67" y2="447.67"/><polyline class="cls-25" points="506.06 446.92 504.62 446.5 504.26 445.05"/><line class="cls-28" x1="502.96" y1="439.78" x2="499.45" y2="425.56"/><line class="cls-29" x1="498.8" y1="422.92" x2="480.72" y2="349.7"/><polyline class="cls-25" points="480.07 347.07 479.71 345.61 480.79 344.57"/><line class="cls-30" x1="484.7" y1="340.81" x2="495.26" y2="330.65"/><line class="cls-31" x1="497.21" y1="328.77" x2="551.56" y2="276.48"/><polyline class="cls-25" points="553.51 274.59 554.6 273.55 556.04 273.97"/><line class="cls-26" x1="561.25" y1="275.48" x2="575.32" y2="279.54"/><line class="cls-27" x1="577.92" y1="280.29" x2="650.35" y2="301.22"/><polyline class="cls-25" points="652.95 301.98 654.39 302.39 654.75 303.85"/><line class="cls-28" x1="656.05" y1="309.12" x2="659.57" y2="323.34"/><line class="cls-29" x1="660.22" y1="325.97" x2="678.3" y2="399.19"/><polyline class="cls-25" points="678.95 401.83 679.3 403.29 678.22 404.32"/><line class="cls-30" x1="674.31" y1="408.09" x2="663.76" y2="418.24"/><line class="cls-31" x1="661.8" y1="420.13" x2="607.45" y2="472.42"/><polygon class="cls-25" points="934.39 341.03 884.14 326.51 871.6 275.71 909.31 239.42 959.56 253.94 972.1 304.75 934.39 341.03"/><polygon class="cls-32" points="569.39 354.73 499.62 334.57 482.2 264.03 534.55 213.66 604.33 233.82 621.74 304.35 569.39 354.73"/><polygon class="cls-24" points="851.36 533.04 775.09 511.01 756.06 433.91 813.28 378.85 889.54 400.89 908.58 477.98 851.36 533.04"/><polygon class="cls-24" points="703.77 562 627.51 539.96 608.47 462.86 665.7 407.8 741.96 429.84 760.99 506.94 703.77 562"/><polygon class="cls-24" points="595.2 459.03 518.94 436.99 499.9 359.89 557.13 304.83 633.39 326.87 652.42 403.97 595.2 459.03"/><polygon class="cls-24" points="480.91 354.41 404.65 332.37 385.62 255.28 442.84 200.22 519.1 222.25 538.14 299.35 480.91 354.41"/><polygon class="cls-24" points="334.07 383.57 257.81 361.54 238.78 284.44 296 229.38 372.26 251.42 391.3 328.51 334.07 383.57"/><polygon class="cls-25" points="440.05 495.82 363.79 473.78 344.76 396.68 401.98 341.62 478.24 363.66 497.28 440.75 440.05 495.82"/><polygon class="cls-25" points="638.49 309.19 562.23 287.16 543.2 210.06 600.42 155 676.68 177.03 695.72 254.13 638.49 309.19"/><polygon class="cls-25" points="744.86 419.79 668.6 397.75 649.57 320.65 706.79 265.59 783.05 287.63 802.09 364.73 744.86 419.79"/><polygon class="cls-24" points="892.45 390.83 816.19 368.8 797.15 291.7 854.38 236.64 930.64 258.68 949.67 335.77 892.45 390.83"/><ellipse class="cls-33" cx="377.93" cy="539.53" rx="9.8" ry="9.8" transform="translate(-245.31 752.82) rotate(-73.88)"/><ellipse class="cls-33" cx="489.45" cy="571.75" rx="9.8" ry="9.8" transform="translate(-195.7 883.24) rotate(-73.88)"/><polygon class="cls-25" points="491.47 572.33 377.58 539.42 349.15 424.29 434.61 342.06 548.5 374.97 576.93 490.11 491.47 572.33"/><ellipse class="cls-33" cx="576.93" cy="490.11" rx="9.8" ry="9.8" transform="translate(-54.07 908.3) rotate(-73.88)"/><ellipse class="cls-33" cx="546.48" cy="374.39" rx="9.8" ry="9.8" transform="translate(35.1 795.45) rotate(-73.88)"/><ellipse class="cls-33" cx="434.96" cy="342.16" rx="9.8" ry="9.8" transform="translate(-14.5 665.04) rotate(-73.88)"/><ellipse class="cls-33" cx="349.15" cy="424.29" rx="9.8" ry="9.8" transform="translate(-155.39 641.94) rotate(-73.88)"/><polygon class="cls-25" points="327.85 397.73 213.97 364.82 185.54 249.68 271 167.45 384.88 200.36 413.31 315.5 327.85 397.73"/><ellipse class="cls-33" cx="413.31" cy="315.5" rx="9.8" ry="9.8" transform="translate(-4.52 624.98) rotate(-73.88)"/><ellipse class="cls-33" cx="382.86" cy="199.78" rx="9.8" ry="9.8" transform="translate(84.65 512.13) rotate(-73.88)"/><ellipse class="cls-33" cx="271.34" cy="167.55" rx="9.8" ry="9.8" transform="translate(35.05 381.72) rotate(-73.88)"/><ellipse class="cls-33" cx="185.54" cy="249.68" rx="9.8" ry="9.8" transform="translate(-105.84 358.61) rotate(-73.88)"/><ellipse class="cls-33" cx="214.31" cy="364.92" rx="9.8" ry="9.8" transform="translate(-195.76 469.5) rotate(-73.88)"/><ellipse class="cls-33" cx="325.83" cy="397.14" rx="9.8" ry="9.8" transform="translate(-146.15 599.92) rotate(-73.88)"/><polygon class="cls-25" points="743.12 542.12 629.23 509.21 600.8 394.08 686.26 311.85 800.14 344.76 828.57 459.89 743.12 542.12"/><ellipse class="cls-33" cx="828.57" cy="459.89" rx="9.8" ry="9.8" transform="translate(156.74 1128.23) rotate(-73.88)"/><ellipse class="cls-33" cx="798.13" cy="344.17" rx="9.8" ry="9.8" transform="translate(245.91 1015.39) rotate(-73.88)"/><ellipse class="cls-33" cx="686.6" cy="311.95" rx="9.8" ry="9.8" transform="translate(196.31 884.97) rotate(-73.88)"/><ellipse class="cls-33" cx="600.8" cy="394.08" rx="9.8" ry="9.8" transform="translate(55.43 861.87) rotate(-73.88)"/><ellipse class="cls-33" cx="629.57" cy="509.31" rx="9.8" ry="9.8" transform="translate(-34.49 972.75) rotate(-73.88)"/><ellipse class="cls-33" cx="741.09" cy="541.54" rx="9.8" ry="9.8" transform="translate(15.11 1103.17) rotate(-73.88)"/><polygon class="cls-25" points="977.99 479.3 864.11 446.39 835.68 331.25 921.14 249.03 1035.02 281.94 1063.45 397.07 977.99 479.3"/><ellipse class="cls-33" cx="1063.45" cy="397.07" rx="9.8" ry="9.8" transform="translate(386.77 1308.49) rotate(-73.88)"/><ellipse class="cls-33" cx="1033" cy="281.35" rx="9.8" ry="9.8" transform="translate(475.94 1195.65) rotate(-73.88)"/><ellipse class="cls-33" cx="921.48" cy="249.13" rx="9.8" ry="9.8" transform="translate(426.34 1065.23) rotate(-73.88)"/><ellipse class="cls-33" cx="835.68" cy="331.25" rx="9.8" ry="9.8" transform="translate(285.46 1042.13) rotate(-73.88)"/><ellipse class="cls-33" cx="864.45" cy="446.49" rx="9.8" ry="9.8" transform="translate(195.54 1153.02) rotate(-73.88)"/><ellipse class="cls-33" cx="975.97" cy="478.71" rx="9.8" ry="9.8" transform="translate(245.14 1283.43) rotate(-73.88)"/><polygon class="cls-25" points="1149.74 651.47 1035.85 618.56 1007.43 503.43 1092.88 421.2 1206.77 454.11 1235.2 569.24 1149.74 651.47"/><ellipse class="cls-33" cx="1007.43" cy="503.43" rx="9.8" ry="9.8" transform="translate(244.12 1331.5) rotate(-73.88)"/><ellipse class="cls-33" cx="1036.2" cy="618.66" rx="9.8" ry="9.8" transform="translate(154.2 1442.39) rotate(-73.88)"/></g><g class="cls-19"><g class="cls-20"><g class="cls-21"><polygon class="cls-22" points="306.87 1233.9 265.57 1278.04 206.72 1264.34 189.17 1206.49 230.47 1162.35 289.32 1176.05 306.87 1233.9"/></g></g><polygon class="cls-23" points="683.42 1334.88 607.16 1312.84 588.13 1235.75 645.35 1180.68 721.61 1202.72 740.65 1279.82 683.42 1334.88"/><polygon class="cls-24" points="726.05 1187.35 649.79 1165.32 630.75 1088.22 687.98 1033.16 764.24 1055.19 783.27 1132.29 726.05 1187.35"/><polygon class="cls-25" points="535.08 1364.48 458.82 1342.45 439.78 1265.35 497.01 1210.29 573.27 1232.32 592.3 1309.42 535.08 1364.48"/><polyline class="cls-25" points="330.32 1163.53 329.24 1164.57 327.8 1164.15"/><line class="cls-26" x1="322.59" y1="1162.65" x2="308.52" y2="1158.58"/><line class="cls-27" x1="305.91" y1="1157.83" x2="233.49" y2="1136.9"/><polyline class="cls-25" points="230.88 1136.15 229.44 1135.73 229.08 1134.27"/><line class="cls-28" x1="227.78" y1="1129.01" x2="224.27" y2="1114.78"/><line class="cls-29" x1="223.62" y1="1112.15" x2="205.54" y2="1038.93"/><polyline class="cls-25" points="204.89 1036.29 204.53 1034.84 205.61 1033.8"/><line class="cls-30" x1="209.52" y1="1030.03" x2="220.08" y2="1019.88"/><line class="cls-31" x1="222.03" y1="1018" x2="276.38" y2="965.7"/><polyline class="cls-25" points="278.33 963.82 279.42 962.78 280.86 963.2"/><line class="cls-26" x1="286.07" y1="964.7" x2="300.13" y2="968.77"/><line class="cls-27" x1="302.74" y1="969.52" x2="375.17" y2="990.45"/><polyline class="cls-25" points="377.77 991.2 379.21 991.62 379.57 993.07"/><line class="cls-28" x1="380.87" y1="998.34" x2="384.39" y2="1012.57"/><line class="cls-29" x1="385.04" y1="1015.2" x2="403.12" y2="1088.42"/><polyline class="cls-25" points="403.76 1091.06 404.13 1092.51 403.04 1093.55"/><line class="cls-30" x1="399.13" y1="1097.31" x2="388.58" y2="1107.47"/><line class="cls-31" x1="386.62" y1="1109.35" x2="332.27" y2="1161.65"/><polygon class="cls-25" points="659.21 1030.26 608.96 1015.74 596.42 964.93 634.13 928.65 684.38 943.17 696.92 993.98 659.21 1030.26"/><polygon class="cls-32" points="294.21 1043.95 224.44 1023.79 207.02 953.26 259.37 902.88 329.14 923.04 346.56 993.58 294.21 1043.95"/><polygon class="cls-24" points="576.17 1222.27 499.91 1200.24 480.88 1123.14 538.1 1068.08 614.36 1090.11 633.4 1167.21 576.17 1222.27"/><polygon class="cls-24" points="428.59 1251.22 352.33 1229.19 333.29 1152.09 390.52 1097.03 466.78 1119.07 485.81 1196.16 428.59 1251.22"/><polygon class="cls-24" points="320.02 1148.25 243.76 1126.22 224.72 1049.12 281.94 994.06 358.2 1016.1 377.24 1093.19 320.02 1148.25"/><polygon class="cls-24" points="205.73 1043.64 129.47 1021.6 110.44 944.5 167.66 889.44 243.92 911.48 262.96 988.58 205.73 1043.64"/><polygon class="cls-24" points="58.89 1072.8 -17.37 1050.77 -36.41 973.67 20.82 918.61 97.08 940.64 116.11 1017.74 58.89 1072.8"/><polygon class="cls-25" points="164.87 1185.04 88.61 1163.01 69.58 1085.91 126.8 1030.85 203.06 1052.88 222.1 1129.98 164.87 1185.04"/><polygon class="cls-25" points="363.31 998.42 287.05 976.38 268.02 899.29 325.24 844.23 401.5 866.26 420.54 943.36 363.31 998.42"/><polygon class="cls-25" points="469.68 1109.01 393.42 1086.98 374.39 1009.88 431.61 954.82 507.87 976.86 526.91 1053.95 469.68 1109.01"/><polygon class="cls-24" points="617.27 1080.06 541.01 1058.03 521.97 980.93 579.2 925.87 655.46 947.9 674.49 1025 617.27 1080.06"/><ellipse class="cls-33" cx="102.75" cy="1228.75" rx="9.8" ry="9.8" transform="translate(-1106.23 986.35) rotate(-73.88)"/><ellipse class="cls-33" cx="214.27" cy="1260.98" rx="9.8" ry="9.8" transform="translate(-1056.63 1116.77) rotate(-73.88)"/><polygon class="cls-25" points="216.29 1261.56 102.4 1228.65 73.97 1113.52 159.43 1031.29 273.32 1064.2 301.75 1179.33 216.29 1261.56"/><ellipse class="cls-33" cx="301.75" cy="1179.33" rx="9.8" ry="9.8" transform="translate(-915 1141.83) rotate(-73.88)"/><ellipse class="cls-33" cx="271.3" cy="1063.61" rx="9.8" ry="9.8" transform="translate(-825.82 1028.98) rotate(-73.88)"/><ellipse class="cls-33" cx="159.78" cy="1031.39" rx="9.8" ry="9.8" transform="translate(-875.43 898.57) rotate(-73.88)"/><ellipse class="cls-33" cx="73.97" cy="1113.52" rx="9.8" ry="9.8" transform="translate(-1016.31 875.46) rotate(-73.88)"/><polygon class="cls-25" points="52.67 1086.95 -61.22 1054.04 -89.64 938.91 -4.18 856.68 109.7 889.59 138.13 1004.72 52.67 1086.95"/><ellipse class="cls-33" cx="138.13" cy="1004.72" rx="9.8" ry="9.8" transform="translate(-865.45 858.51) rotate(-73.88)"/><ellipse class="cls-33" cx="107.68" cy="889" rx="9.8" ry="9.8" transform="translate(-776.27 745.66) rotate(-73.88)"/><ellipse class="cls-33" cx="-3.84" cy="856.78" rx="9.8" ry="9.8" transform="matrix(0.28, -0.96, 0.96, 0.28, -825.88, 615.25)"/><ellipse class="cls-33" cx="50.65" cy="1086.37" rx="9.8" ry="9.8" transform="translate(-1007.08 833.45) rotate(-73.88)"/><polygon class="cls-25" points="467.93 1231.35 354.05 1198.44 325.62 1083.31 411.08 1001.08 524.96 1033.98 553.39 1149.12 467.93 1231.35"/><ellipse class="cls-33" cx="553.39" cy="1149.12" rx="9.8" ry="9.8" transform="translate(-704.19 1361.76) rotate(-73.88)"/><ellipse class="cls-33" cx="522.94" cy="1033.4" rx="9.8" ry="9.8" transform="translate(-615.01 1248.91) rotate(-73.88)"/><ellipse class="cls-33" cx="411.42" cy="1001.18" rx="9.8" ry="9.8" transform="translate(-664.62 1118.5) rotate(-73.88)"/><ellipse class="cls-33" cx="325.62" cy="1083.3" rx="9.8" ry="9.8" transform="translate(-805.5 1095.4) rotate(-73.88)"/><ellipse class="cls-33" cx="354.39" cy="1198.54" rx="9.8" ry="9.8" transform="translate(-895.42 1206.28) rotate(-73.88)"/><ellipse class="cls-33" cx="465.91" cy="1230.76" rx="9.8" ry="9.8" transform="translate(-845.82 1336.7) rotate(-73.88)"/><polygon class="cls-25" points="702.81 1168.52 588.93 1135.62 560.5 1020.48 645.96 938.25 759.84 971.16 788.27 1086.3 702.81 1168.52"/><ellipse class="cls-33" cx="788.27" cy="1086.3" rx="9.8" ry="9.8" transform="translate(-474.16 1542.02) rotate(-73.88)"/><ellipse class="cls-33" cx="757.82" cy="970.58" rx="9.8" ry="9.8" transform="translate(-384.98 1429.18) rotate(-73.88)"/><ellipse class="cls-33" cx="646.3" cy="938.35" rx="9.8" ry="9.8" transform="translate(-434.59 1298.76) rotate(-73.88)"/><ellipse class="cls-33" cx="560.5" cy="1020.48" rx="9.8" ry="9.8" transform="translate(-575.47 1275.66) rotate(-73.88)"/><ellipse class="cls-33" cx="589.27" cy="1135.72" rx="9.8" ry="9.8" transform="translate(-665.39 1386.55) rotate(-73.88)"/><ellipse class="cls-33" cx="700.79" cy="1167.94" rx="9.8" ry="9.8" transform="translate(-615.79 1516.96) rotate(-73.88)"/><polygon class="cls-25" points="874.56 1340.7 760.67 1307.79 732.25 1192.65 817.7 1110.43 931.59 1143.34 960.02 1258.47 874.56 1340.7"/><ellipse class="cls-33" cx="960.02" cy="1258.47" rx="9.8" ry="9.8" transform="translate(-515.49 1831.4) rotate(-73.88)"/><ellipse class="cls-33" cx="929.57" cy="1142.75" rx="9.8" ry="9.8" transform="translate(-426.32 1718.55) rotate(-73.88)"/><ellipse class="cls-33" cx="818.05" cy="1110.53" rx="9.8" ry="9.8" transform="translate(-475.92 1588.14) rotate(-73.88)"/><ellipse class="cls-33" cx="732.25" cy="1192.66" rx="9.8" ry="9.8" transform="translate(-616.81 1565.03) rotate(-73.88)"/><ellipse class="cls-33" cx="761.02" cy="1307.89" rx="9.8" ry="9.8" transform="translate(-706.73 1675.92) rotate(-73.88)"/><ellipse class="cls-33" cx="872.54" cy="1340.11" rx="9.8" ry="9.8" transform="translate(-657.12 1806.34) rotate(-73.88)"/></g></g></g></g></g></svg>