<svg xmlns="http://www.w3.org/2000/svg" xmlns:xlink="http://www.w3.org/1999/xlink" viewBox="0 0 1920 1080"><defs><style>.cls-1,.cls-12,.cls-13,.cls-14,.cls-15,.cls-16,.cls-17,.cls-18,.cls-21,.cls-22,.cls-25,.cls-26,.cls-27,.cls-31,.cls-32{fill:none;}.cls-2{isolation:isolate;}.cls-3{fill:url(#radial-gradient);}.cls-4{clip-path:url(#clip-path);}.cls-5{opacity:0.77;}.cls-6{opacity:0.6;}.cls-10,.cls-27,.cls-7{opacity:0.35;}.cls-11,.cls-8{fill:#5c59e2;}.cls-30,.cls-9{opacity:0.2;}.cls-10{fill:#6e2bd8;}.cls-11{opacity:0.21;}.cls-12,.cls-13,.cls-14,.cls-15,.cls-16,.cls-17,.cls-18{stroke:#8b54e2;}.cls-12,.cls-13,.cls-14,.cls-15,.cls-16,.cls-17,.cls-18,.cls-21,.cls-22,.cls-23,.cls-25,.cls-26,.cls-27,.cls-31,.cls-32,.cls-33{stroke-miterlimit:10;}.cls-13{stroke-dasharray:2.73 4.54 2.73 4.54;}.cls-14{stroke-dasharray:2.73 4.54 2.73 4.54 2.73 4.54;}.cls-15{stroke-dasharray:2.73 4.55 2.73 4.55;}.cls-16{stroke-dasharray:2.73 4.55 2.73 4.55 2.73 4.55;}.cls-17{stroke-dasharray:2.73 4.55 2.73 4.55;}.cls-18{stroke-dasharray:2.73 4.55 2.73 4.55 2.73 4.55;}.cls-19{fill:#6e00c3;opacity:0.38;}.cls-20{fill:#9e4aff;}.cls-21{stroke:#730b99;opacity:0.5;}.cls-22,.cls-26{stroke:#a10dd1;}.cls-22,.cls-25,.cls-27,.cls-32{stroke-width:2px;}.cls-23,.cls-33{fill:#7a18a8;fill-opacity:0.2;stroke:#7316a8;}.cls-23{stroke-dasharray:4 5 4 5 4 5;}.cls-24{opacity:0.75;}.cls-25,.cls-31,.cls-32{stroke:#8016a8;}.cls-25{stroke-dasharray:19.87 9.93 19.87 9.93 19.87 9.93;}.cls-26{stroke-width:6px;}.cls-27{stroke:#9409ce;}.cls-28{fill:#8e2fd1;opacity:0.3;mix-blend-mode:screen;}.cls-29{opacity:0.91;mix-blend-mode:lighten;fill:url(#linear-gradient);}.cls-30{fill:#7e18a8;}.cls-31{stroke-dasharray:4.02 5.03 4.02 5.03 4.02 5.03;}.cls-32{stroke-dasharray:19.86 9.93 19.86 9.93 19.86 9.93;}.cls-33{stroke-width:3px;}</style><radialGradient id="radial-gradient" cx="958.97" cy="540" r="778.85" gradientTransform="translate(0)" gradientUnits="userSpaceOnUse"><stop offset="0" stop-color="#1b1464"/><stop offset="1"/></radialGradient><clipPath id="clip-path"><rect class="cls-1" x="-1.03" width="1921.03" height="1080"/></clipPath><linearGradient id="linear-gradient" x1="965" y1="807.77" x2="965" y2="-2" gradientUnits="userSpaceOnUse"><stop offset="0" stop-color="#70a"/><stop offset="1" stop-color="#225" stop-opacity="0"/></linearGradient></defs><title>Artboard 1</title><g class="cls-2"><g id="text"><rect class="cls-3" x="-1.03" width="1921.03" height="1080"/><g class="cls-4"><g class="cls-5"><g class="cls-6"><g class="cls-7"><polygon class="cls-8" points="381.65 827 438.59 798.62 442.47 735.14 389.41 700.05 332.47 728.43 328.59 791.9 381.65 827"/></g><g class="cls-9"><polygon class="cls-8" points="326.75 716.97 383.69 688.58 387.57 625.11 334.51 590.01 277.57 618.39 273.69 681.87 326.75 716.97"/></g></g><polygon class="cls-10" points="315.35 1127.12 316.06 1043.58 244.03 1001.19 171.29 1042.35 170.58 1125.89 242.61 1168.27 315.35 1127.12"/><polygon class="cls-11" points="153.74 1125.75 154.45 1042.2 82.42 999.82 9.67 1040.98 8.96 1124.52 81 1166.9 153.74 1125.75"/><polygon class="cls-12" points="389.82 986.41 390.53 902.87 318.5 860.48 245.75 901.64 245.05 985.18 317.08 1027.56 389.82 986.41"/><polyline class="cls-12" points="248.79 719.41 250.1 718.68 250.11 717.18"/><line class="cls-13" x1="250.15" y1="712.63" x2="250.25" y2="700.36"/><line class="cls-14" x1="250.27" y1="698.09" x2="250.99" y2="613.12"/><polyline class="cls-12" points="251.01 610.85 251.03 609.35 249.73 608.59"/><line class="cls-15" x1="245.82" y1="606.28" x2="235.24" y2="600.06"/><line class="cls-16" x1="233.28" y1="598.91" x2="160.01" y2="555.79"/><polyline class="cls-12" points="158.05 554.64 156.76 553.88 155.45 554.62"/><line class="cls-17" x1="151.5" y1="556.86" x2="140.81" y2="562.9"/><line class="cls-18" x1="138.84" y1="564.02" x2="64.85" y2="605.88"/><polyline class="cls-12" points="62.87 607 61.56 607.74 61.55 609.24"/><line class="cls-13" x1="61.51" y1="613.78" x2="61.41" y2="626.05"/><line class="cls-14" x1="61.39" y1="628.33" x2="60.67" y2="713.3"/><polyline class="cls-12" points="60.65 715.57 60.63 717.07 61.93 717.83"/><line class="cls-15" x1="65.85" y1="720.13" x2="76.42" y2="726.36"/><line class="cls-16" x1="78.38" y1="727.51" x2="151.65" y2="770.62"/><polyline class="cls-12" points="153.61 771.78 154.9 772.54 156.21 771.8"/><line class="cls-17" x1="160.16" y1="769.56" x2="170.85" y2="763.51"/><line class="cls-18" x1="172.83" y1="762.4" x2="246.81" y2="720.53"/><polyline class="cls-12" points="188.56 294.41 189.86 293.67 189.87 292.17"/><line class="cls-13" x1="189.91" y1="287.63" x2="190.02" y2="275.36"/><line class="cls-14" x1="190.04" y1="273.08" x2="190.76" y2="188.11"/><polyline class="cls-12" points="190.78 185.84 190.79 184.34 189.5 183.58"/><line class="cls-15" x1="185.58" y1="181.28" x2="175" y2="175.05"/><line class="cls-16" x1="173.04" y1="173.9" x2="99.77" y2="130.79"/><polyline class="cls-12" points="97.81 129.63 96.52 128.87 95.22 129.61"/><line class="cls-17" x1="91.26" y1="131.85" x2="80.58" y2="137.89"/><line class="cls-18" x1="78.6" y1="139.01" x2="4.61" y2="180.88"/><polyline class="cls-12" points="2.63 182 1.33 182.73 1.31 184.23"/><line class="cls-13" x1="1.28" y1="188.78" x2="1.17" y2="201.05"/><line class="cls-14" x1="1.15" y1="203.32" x2="0.43" y2="288.29"/><polyline class="cls-12" points="0.41 290.56 0.4 292.06 1.69 292.82"/><line class="cls-15" x1="5.61" y1="295.13" x2="16.19" y2="301.35"/><line class="cls-16" x1="18.15" y1="302.5" x2="91.41" y2="345.62"/><polyline class="cls-12" points="93.37 346.77 94.66 347.53 95.97 346.79"/><line class="cls-17" x1="99.93" y1="344.55" x2="110.61" y2="338.51"/><line class="cls-18" x1="112.59" y1="337.39" x2="186.58" y2="295.53"/><polygon class="cls-12" points="15.4 1011.09 15.87 956.04 -31.6 928.11 -79.53 955.23 -80 1010.28 -32.53 1038.21 15.4 1011.09"/><polygon class="cls-19" points="138.99 647.07 139.63 570.64 73.73 531.86 7.18 569.51 6.53 645.95 72.43 684.73 138.99 647.07"/><polygon class="cls-11" points="234.03 985.09 234.74 901.54 162.71 859.16 89.97 900.32 89.26 983.86 161.29 1026.24 234.03 985.09"/><polygon class="cls-11" points="307.62 844.94 308.33 761.4 236.29 719.01 163.55 760.17 162.84 843.71 234.87 886.1 307.62 844.94"/><polygon class="cls-11" points="236.42 704.47 237.13 620.93 165.09 578.54 92.35 619.7 91.64 703.24 163.68 745.63 236.42 704.47"/><polygon class="cls-11" points="165.27 557.74 165.98 474.2 93.95 431.82 21.2 472.97 20.5 556.52 92.53 598.9 165.27 557.74"/><polygon class="cls-11" points="238.85 418.41 239.56 334.87 167.53 292.49 94.78 333.64 94.07 417.18 166.11 459.57 238.85 418.41"/><polygon class="cls-12" points="320.18 559.06 320.89 475.52 248.86 433.13 176.11 474.29 175.4 557.83 247.44 600.22 320.18 559.06"/><polygon class="cls-12" points="72.28 703.08 72.99 619.54 0.95 577.15 -71.79 618.31 -72.5 701.85 -0.47 744.23 72.28 703.08"/><polygon class="cls-11" points="1.13 556.35 1.84 472.81 -70.19 430.42 -142.94 471.58 -143.65 555.12 -71.61 597.51 1.13 556.35"/><polygon class="cls-12" points="151.83 843.62 152.54 760.08 80.5 717.69 7.76 758.85 7.05 842.39 79.09 884.77 151.83 843.62"/><polygon class="cls-11" points="78.24 983.76 78.95 900.22 6.92 857.84 -65.82 898.99 -66.53 982.53 5.5 1024.92 78.24 983.76"/><ellipse class="cls-20" cx="382.95" cy="509.55" rx="10.31" ry="10.32" transform="translate(-129.83 888.16) rotate(-89.51)"/><ellipse class="cls-20" cx="381.91" cy="631.71" rx="10.31" ry="10.32" transform="translate(-253.02 1008.25) rotate(-89.51)"/><polygon class="cls-12" points="381.89 633.93 382.95 509.17 275.38 445.87 166.74 507.33 165.68 632.09 273.26 695.39 381.89 633.93"/><ellipse class="cls-20" cx="273.26" cy="695.39" rx="10.31" ry="10.32" transform="translate(-424.43 962.73) rotate(-89.51)"/><ellipse class="cls-20" cx="165.7" cy="629.88" rx="10.31" ry="10.32" transform="translate(-465.56 790.23) rotate(-89.51)"/><ellipse class="cls-20" cx="166.74" cy="507.71" rx="10.31" ry="10.32" transform="translate(-342.37 670.14) rotate(-89.51)"/><ellipse class="cls-20" cx="275.38" cy="445.87" rx="10.31" ry="10.32" transform="translate(-172.81 717.45) rotate(-89.51)"/><polygon class="cls-12" points="254.99 416.39 256.05 291.63 148.48 228.34 39.84 289.8 38.78 414.56 146.36 477.86 254.99 416.39"/><ellipse class="cls-20" cx="146.36" cy="477.86" rx="10.31" ry="10.32" transform="translate(-332.73 620.15) rotate(-89.51)"/><ellipse class="cls-20" cx="38.8" cy="412.35" rx="10.31" ry="10.32" transform="translate(-373.86 447.65) rotate(-89.51)"/><ellipse class="cls-20" cx="39.84" cy="290.18" rx="10.31" ry="10.32" transform="translate(-250.67 327.55) rotate(-89.51)"/><ellipse class="cls-20" cx="148.48" cy="228.34" rx="10.31" ry="10.32" transform="translate(-81.11 374.87) rotate(-89.51)"/><ellipse class="cls-20" cx="256.05" cy="292.01" rx="10.31" ry="10.32" transform="translate(-38.13 545.57) rotate(-89.51)"/><ellipse class="cls-20" cx="255.01" cy="414.18" rx="10.31" ry="10.32" transform="translate(-161.32 665.67) rotate(-89.51)"/><polygon class="cls-12" points="275.74 878.65 276.8 753.89 169.23 690.59 60.59 752.05 59.53 876.81 167.11 940.11 275.74 878.65"/><ellipse class="cls-20" cx="167.11" cy="940.11" rx="10.31" ry="10.32" transform="translate(-774.39 1099.23) rotate(-89.51)"/><ellipse class="cls-20" cx="59.55" cy="874.6" rx="10.31" ry="10.32" transform="translate(-815.52 926.72) rotate(-89.51)"/><ellipse class="cls-20" cx="60.59" cy="752.43" rx="10.31" ry="10.32" transform="translate(-692.33 806.63) rotate(-89.51)"/><ellipse class="cls-20" cx="169.23" cy="690.59" rx="10.31" ry="10.32" transform="translate(-522.77 853.95) rotate(-89.51)"/><ellipse class="cls-20" cx="276.8" cy="754.27" rx="10.31" ry="10.32" transform="translate(-479.79 1024.65) rotate(-89.51)"/><ellipse class="cls-20" cx="275.76" cy="876.43" rx="10.31" ry="10.32" transform="translate(-602.98 1144.74) rotate(-89.51)"/><polygon class="cls-12" points="141.74 1096.65 142.8 971.89 35.23 908.59 -73.41 970.05 -74.47 1094.81 33.11 1158.11 141.74 1096.65"/><ellipse class="cls-20" cx="35.23" cy="908.59" rx="10.31" ry="10.32" transform="translate(-873.63 936.1) rotate(-89.51)"/><ellipse class="cls-20" cx="142.8" cy="972.27" rx="10.31" ry="10.32" transform="translate(-830.65 1106.8) rotate(-89.51)"/></g><g class="cls-5"><g class="cls-6"><g class="cls-7"><polygon class="cls-8" points="1577.33 243.29 1520.38 271.68 1516.51 335.15 1569.57 370.25 1626.51 341.87 1630.39 278.39 1577.33 243.29"/></g><g class="cls-9"><polygon class="cls-8" points="1632.23 353.33 1575.29 381.71 1571.41 445.19 1624.47 480.28 1681.41 451.9 1685.29 388.43 1632.23 353.33"/></g></g><polygon class="cls-12" points="1621.96 26.53 1621.56 -37.07 1566.26 -68.52 1511.35 -36.38 1511.75 27.21 1567.05 58.67 1621.96 26.53"/><polygon class="cls-10" points="1643.62 -56.82 1642.91 26.72 1714.95 69.1 1787.69 27.95 1788.4 -55.59 1716.37 -97.98 1643.62 -56.82"/><polygon class="cls-11" points="1805.24 -55.45 1804.53 28.09 1876.56 70.48 1949.3 29.32 1950.01 -54.22 1877.98 -96.61 1805.24 -55.45"/><polygon class="cls-12" points="1569.15 83.89 1568.45 167.43 1640.48 209.81 1713.22 168.66 1713.93 85.12 1641.9 42.73 1569.15 83.89"/><polyline class="cls-12" points="1710.18 350.88 1708.88 351.62 1708.87 353.12"/><line class="cls-13" x1="1708.83" y1="357.66" x2="1708.72" y2="369.93"/><line class="cls-14" x1="1708.7" y1="372.2" x2="1707.98" y2="457.17"/><polyline class="cls-12" points="1707.96 459.45 1707.95 460.95 1709.24 461.71"/><line class="cls-15" x1="1713.16" y1="464.01" x2="1723.74" y2="470.24"/><line class="cls-16" x1="1725.7" y1="471.39" x2="1798.97" y2="514.5"/><polyline class="cls-12" points="1800.92 515.65 1802.22 516.41 1803.52 515.67"/><line class="cls-17" x1="1807.48" y1="513.44" x2="1818.16" y2="507.39"/><line class="cls-18" x1="1820.14" y1="506.27" x2="1894.13" y2="464.41"/><polyline class="cls-12" points="1896.11 463.29 1897.41 462.55 1897.43 461.05"/><line class="cls-13" x1="1897.46" y1="456.51" x2="1897.57" y2="444.24"/><line class="cls-14" x1="1897.59" y1="441.97" x2="1898.31" y2="357"/><polyline class="cls-12" points="1898.33 354.73 1898.34 353.23 1897.05 352.47"/><line class="cls-15" x1="1893.13" y1="350.16" x2="1882.55" y2="343.94"/><line class="cls-16" x1="1880.59" y1="342.78" x2="1807.33" y2="299.67"/><polyline class="cls-12" points="1805.37 298.52 1804.08 297.76 1802.77 298.5"/><line class="cls-17" x1="1798.81" y1="300.74" x2="1788.13" y2="306.78"/><line class="cls-18" x1="1786.15" y1="307.9" x2="1712.16" y2="349.76"/><polyline class="cls-12" points="1770.42 775.89 1769.12 776.63 1769.1 778.13"/><line class="cls-13" x1="1769.07" y1="782.67" x2="1768.96" y2="794.94"/><line class="cls-14" x1="1768.94" y1="797.21" x2="1768.22" y2="882.18"/><polyline class="cls-12" points="1768.2 884.45 1768.19 885.95 1769.48 886.72"/><line class="cls-15" x1="1773.4" y1="889.02" x2="1783.98" y2="895.24"/><line class="cls-16" x1="1785.94" y1="896.4" x2="1859.2" y2="939.51"/><polyline class="cls-12" points="1861.16 940.66 1862.45 941.42 1863.76 940.68"/><line class="cls-17" x1="1867.72" y1="938.44" x2="1878.4" y2="932.4"/><line class="cls-18" x1="1880.38" y1="931.28" x2="1954.37" y2="889.42"/><line class="cls-16" x1="1940.83" y1="767.79" x2="1867.56" y2="724.68"/><polyline class="cls-12" points="1865.61 723.53 1864.31 722.77 1863.01 723.5"/><line class="cls-17" x1="1859.05" y1="725.74" x2="1848.37" y2="731.79"/><line class="cls-18" x1="1846.39" y1="732.91" x2="1772.4" y2="774.77"/><polygon class="cls-19" points="1819.99 423.22 1819.34 499.66 1885.25 538.43 1951.8 500.78 1952.45 424.35 1886.55 385.57 1819.99 423.22"/><polygon class="cls-11" points="1724.94 85.21 1724.23 168.75 1796.27 211.14 1869.01 169.98 1869.72 86.44 1797.69 44.05 1724.94 85.21"/><polygon class="cls-11" points="1651.36 225.35 1650.65 308.9 1722.68 351.28 1795.43 310.13 1796.14 226.58 1724.1 184.2 1651.36 225.35"/><polygon class="cls-11" points="1722.56 365.82 1721.85 449.37 1793.88 491.75 1866.63 450.6 1867.34 367.05 1795.3 324.67 1722.56 365.82"/><polygon class="cls-11" points="1793.71 512.55 1793 596.09 1865.03 638.48 1937.77 597.32 1938.48 513.78 1866.45 471.39 1793.71 512.55"/><polygon class="cls-11" points="1720.13 651.88 1719.42 735.42 1791.45 777.81 1864.19 736.65 1864.9 653.11 1792.87 610.73 1720.13 651.88"/><polygon class="cls-12" points="1638.8 511.24 1638.09 594.78 1710.12 637.16 1782.86 596.01 1783.57 512.47 1711.54 470.08 1638.8 511.24"/><polygon class="cls-12" points="1886.7 367.22 1885.99 450.76 1958.02 493.14 2030.77 451.99 2031.48 368.45 1959.44 326.06 1886.7 367.22"/><polygon class="cls-12" points="1807.15 226.68 1806.44 310.22 1878.47 352.6 1951.21 311.45 1951.92 227.91 1879.89 185.52 1807.15 226.68"/><polygon class="cls-11" points="1880.73 86.53 1880.02 170.07 1952.06 212.46 2024.8 171.3 2025.51 87.76 1953.48 45.38 1880.73 86.53"/><ellipse class="cls-20" cx="1576.03" cy="560.75" rx="10.31" ry="10.32" transform="translate(1001.92 2131.96) rotate(-89.51)"/><ellipse class="cls-20" cx="1577.07" cy="438.58" rx="10.31" ry="10.32" transform="translate(1125.12 2011.87) rotate(-89.51)"/><polygon class="cls-12" points="1577.09 436.37 1576.03 561.13 1683.6 624.43 1792.23 562.96 1793.29 438.2 1685.72 374.91 1577.09 436.37"/><ellipse class="cls-20" cx="1685.72" cy="374.91" rx="10.31" ry="10.32" transform="translate(1296.52 2057.38) rotate(-89.51)"/><ellipse class="cls-20" cx="1793.28" cy="440.42" rx="10.31" ry="10.32" transform="translate(1337.65 2229.89) rotate(-89.51)"/><ellipse class="cls-20" cx="1792.24" cy="562.58" rx="10.31" ry="10.32" transform="translate(1214.46 2349.98) rotate(-89.51)"/><ellipse class="cls-20" cx="1683.6" cy="624.43" rx="10.31" ry="10.32" transform="translate(1044.91 2302.67) rotate(-89.51)"/><polygon class="cls-12" points="1703.99 653.9 1702.93 778.66 1810.5 841.96 1919.13 780.5 1920.19 655.74 1812.62 592.44 1703.99 653.9"/><ellipse class="cls-20" cx="1812.62" cy="592.44" rx="10.31" ry="10.32" transform="translate(1204.82 2399.96) rotate(-89.51)"/><ellipse class="cls-20" cx="1920.18" cy="657.95" rx="10.31" ry="10.32" transform="translate(1245.95 2572.47) rotate(-89.51)"/><ellipse class="cls-20" cx="1919.14" cy="780.12" rx="10.31" ry="10.32" transform="translate(1122.76 2692.56) rotate(-89.51)"/><ellipse class="cls-20" cx="1810.5" cy="841.96" rx="10.31" ry="10.32" transform="translate(953.2 2645.25) rotate(-89.51)"/><ellipse class="cls-20" cx="1702.93" cy="778.28" rx="10.31" ry="10.32" transform="translate(910.22 2474.54) rotate(-89.51)"/><ellipse class="cls-20" cx="1703.97" cy="656.11" rx="10.31" ry="10.32" transform="translate(1033.42 2354.45) rotate(-89.51)"/><polygon class="cls-12" points="1683.24 191.65 1682.18 316.41 1789.75 379.71 1898.38 318.24 1899.44 193.48 1791.87 130.19 1683.24 191.65"/><ellipse class="cls-20" cx="1791.87" cy="130.19" rx="10.31" ry="10.32" transform="translate(1646.48 1920.89) rotate(-89.51)"/><ellipse class="cls-20" cx="1899.43" cy="195.7" rx="10.31" ry="10.32" transform="translate(1687.61 2093.39) rotate(-89.51)"/><ellipse class="cls-20" cx="1898.39" cy="317.86" rx="10.31" ry="10.32" transform="translate(1564.42 2213.49) rotate(-89.51)"/><ellipse class="cls-20" cx="1789.75" cy="379.71" rx="10.31" ry="10.32" transform="translate(1394.87 2166.17) rotate(-89.51)"/><ellipse class="cls-20" cx="1682.18" cy="316.03" rx="10.31" ry="10.32" transform="translate(1351.88 1995.47) rotate(-89.51)"/><ellipse class="cls-20" cx="1683.22" cy="193.86" rx="10.31" ry="10.32" transform="translate(1475.08 1875.37) rotate(-89.51)"/><polygon class="cls-12" points="1817.24 -26.35 1816.18 98.41 1923.75 161.71 2032.38 100.24 2033.44 -24.52 1925.87 -87.81 1817.24 -26.35"/><ellipse class="cls-20" cx="1923.75" cy="161.71" rx="10.31" ry="10.32" transform="translate(1745.72 2084.02) rotate(-89.51)"/><ellipse class="cls-20" cx="1816.18" cy="98.03" rx="10.31" ry="10.32" transform="translate(1702.74 1913.31) rotate(-89.51)"/></g><ellipse class="cls-21" cx="959.4" cy="776.34" rx="259.06" ry="72.1"/><ellipse class="cls-22" cx="959.5" cy="763.08" rx="162.76" ry="45.3"/><path class="cls-23" d="M1292.36,948.44c0,54.59-139.91,107.41-346.87,107.41S598.75,1001.56,598.75,947,744,842.85,950.94,842.85,1292.36,893.86,1292.36,948.44Z"/><g class="cls-24"><path class="cls-25" d="M1292.53,810.27c0,54.37-139.35,107-345.49,107S601.69,863.18,601.69,808.81,746.34,705.1,952.47,705.1,1292.53,755.9,1292.53,810.27Z"/></g><g class="cls-24"><path class="cls-25" d="M1292.45,796.41c0,54.37-139.35,107-345.49,107S601.61,849.32,601.61,795,746.26,691.24,952.39,691.24,1292.45,742,1292.45,796.41Z"/></g><g class="cls-24"><path class="cls-25" d="M1292.74,823.68c0,54.37-139.35,107-345.49,107S601.9,876.59,601.9,822.22,746.55,718.51,952.69,718.51,1292.74,769.31,1292.74,823.68Z"/></g><path class="cls-26" d="M867.38,800.42s-132.86-28.76-34-66"/><path class="cls-26" d="M1099.16,786.35s56.28-25.18-10.46-50.82"/><line class="cls-27" x1="601.95" y1="775.09" x2="1291.91" y2="775.09"/><line class="cls-27" x1="958.94" y1="887.96" x2="958.94" y2="675.92"/><line class="cls-27" x1="702.79" y1="856.11" x2="1188.23" y2="704.49"/><line class="cls-27" x1="1190.64" y1="856.74" x2="731.98" y2="698.57"/><path class="cls-28" d="M1292.26,950.88h0c-1.52,56.56-127.19,104.86-330.52,104.86-201.5,0-359.05-50.33-363-106.38l.35,1.53L426.54,1191.76l1066.92,12.43Z"/><path class="cls-29" d="M1124,765a12.14,12.14,0,0,0-2-7c272.46-252.82,590.54-507.18,863-760H-55L796.25,758.34a11.59,11.59,0,0,0-2.55,7.26c.94,21.33,79.09,38,138.3,41.41C1021.15,812.16,1122.55,790.54,1124,765Z"/><rect class="cls-1" x="-1.03" width="1921.03" height="1080"/><path class="cls-30" d="M1292.45,781.06c0,54.37-139.35,107-345.49,107S601.61,834,601.61,779.6,746.25,675.89,952.39,675.89,1292.45,726.69,1292.45,781.06Z"/><path class="cls-31" d="M1292.45,781.06c0,54.37-139.35,107-345.49,107S601.61,834,601.61,779.6,746.26,675.89,952.39,675.89,1292.45,726.69,1292.45,781.06Z"/><g class="cls-24"><path class="cls-32" d="M1307.63,949.85c0,61.84-145.62,121.67-361,121.67S585.72,1010,585.72,948.19s151.15-118,366.56-118S1307.63,888,1307.63,949.85Z"/></g><path class="cls-33" d="M1422.08,828.48c0,78.61-191,154.68-473.43,154.68S475.41,905,475.41,826.37,673.62,676.42,956.09,676.42,1422.08,749.87,1422.08,828.48Z"/></g></g></g></svg>