<svg xmlns="http://www.w3.org/2000/svg" xmlns:xlink="http://www.w3.org/1999/xlink" viewBox="0 0 2246.27 1716.55"><defs><style>.cls-1,.cls-12,.cls-13,.cls-14,.cls-15,.cls-16,.cls-17,.cls-18,.cls-21,.cls-22,.cls-25,.cls-26,.cls-27,.cls-31,.cls-32{fill:none;}.cls-2{isolation:isolate;}.cls-3{fill:url(#radial-gradient);}.cls-4{clip-path:url(#clip-path);}.cls-5{opacity:0.77;}.cls-6{opacity:0.6;}.cls-10,.cls-27,.cls-7{opacity:0.35;}.cls-11,.cls-8{fill:#5c59e2;}.cls-30,.cls-9{opacity:0.2;}.cls-10{fill:#6e2bd8;}.cls-11{opacity:0.21;}.cls-12,.cls-13,.cls-14,.cls-15,.cls-16,.cls-17,.cls-18{stroke:#8b54e2;}.cls-12,.cls-13,.cls-14,.cls-15,.cls-16,.cls-17,.cls-18,.cls-21,.cls-22,.cls-23,.cls-25,.cls-26,.cls-27,.cls-31,.cls-32,.cls-33{stroke-miterlimit:10;}.cls-13{stroke-dasharray:2.73 4.54 2.73 4.54;}.cls-14{stroke-dasharray:2.73 4.54 2.73 4.54 2.73 4.54;}.cls-15{stroke-dasharray:2.73 4.55 2.73 4.55;}.cls-16{stroke-dasharray:2.73 4.55 2.73 4.55 2.73 4.55;}.cls-17{stroke-dasharray:2.73 4.55 2.73 4.55;}.cls-18{stroke-dasharray:2.73 4.55 2.73 4.55 2.73 4.55;}.cls-19{fill:#6e00c3;opacity:0.38;}.cls-20{fill:#9e4aff;}.cls-21{stroke:#730b99;opacity:0.5;}.cls-22,.cls-26{stroke:#a10dd1;}.cls-22,.cls-25,.cls-27,.cls-32{stroke-width:2px;}.cls-23,.cls-33{fill:#7a18a8;fill-opacity:0.2;stroke:#7316a8;}.cls-23{stroke-dasharray:4 5 4 5 4 5;}.cls-24{opacity:0.75;}.cls-25,.cls-31,.cls-32{stroke:#8016a8;}.cls-25{stroke-dasharray:19.87 9.93 19.87 9.93 19.87 9.93;}.cls-26{stroke-width:6px;}.cls-27{stroke:#9409ce;}.cls-28{fill:#8e2fd1;opacity:0.3;mix-blend-mode:screen;}.cls-29{opacity:0.91;mix-blend-mode:lighten;fill:url(#linear-gradient);}.cls-30{fill:#7e18a8;}.cls-31{stroke-dasharray:4.02 5.03 4.02 5.03 4.02 5.03;}.cls-32{stroke-dasharray:19.86 9.93 19.86 9.93 19.86 9.93;}.cls-33{stroke-width:3px;}</style><radialGradient id="radial-gradient" cx="1102.61" cy="863.13" r="778.85" gradientTransform="translate(-0.08)" gradientUnits="userSpaceOnUse"><stop offset="0" stop-color="#1b1464"/><stop offset="1"/></radialGradient><clipPath id="clip-path"><rect class="cls-1" x="142.61" y="323.13" width="1921.03" height="1080"/></clipPath><linearGradient id="linear-gradient" x1="1108.65" y1="1130.89" x2="1108.65" y2="321.13" gradientUnits="userSpaceOnUse"><stop offset="0" stop-color="#70a"/><stop offset="1" stop-color="#225" stop-opacity="0"/></linearGradient></defs><title>CombinedBG_1</title><g class="cls-2"><g id="Layer_2" data-name="Layer 2"><g id="text"><rect class="cls-3" x="142.61" y="323.13" width="1921.03" height="1080"/><g class="cls-4"><g class="cls-5"><g class="cls-6"><g class="cls-7"><polygon class="cls-8" points="525.3 1150.13 582.24 1121.75 586.12 1058.27 533.06 1023.17 476.12 1051.56 472.24 1115.03 525.3 1150.13"/></g><g class="cls-9"><polygon class="cls-8" points="470.39 1040.09 527.34 1011.71 531.22 948.24 478.15 913.14 421.21 941.52 417.33 1005 470.39 1040.09"/></g></g><polygon class="cls-10" points="459 1450.24 459.71 1366.7 387.68 1324.32 314.93 1365.47 314.22 1449.02 386.26 1491.4 459 1450.24"/><polygon class="cls-11" points="297.39 1448.87 298.1 1365.33 226.06 1322.95 153.32 1364.1 152.61 1447.64 224.64 1490.03 297.39 1448.87"/><polygon class="cls-12" points="533.47 1309.53 534.18 1225.99 462.14 1183.61 389.4 1224.76 388.69 1308.31 460.73 1350.69 533.47 1309.53"/><polyline class="cls-12" points="392.44 1042.54 393.74 1041.8 393.76 1040.3"/><line class="cls-13" x1="393.8" y1="1035.76" x2="393.9" y2="1023.49"/><line class="cls-14" x1="393.92" y1="1021.22" x2="394.64" y2="936.25"/><polyline class="cls-12" points="394.66 933.98 394.67 932.48 393.38 931.72"/><line class="cls-15" x1="389.46" y1="929.41" x2="378.88" y2="923.18"/><line class="cls-16" x1="376.92" y1="922.03" x2="303.66" y2="878.92"/><polyline class="cls-12" points="301.7 877.77 300.41 877.01 299.1 877.75"/><line class="cls-17" x1="295.14" y1="879.98" x2="284.46" y2="886.03"/><line class="cls-18" x1="282.48" y1="887.15" x2="208.49" y2="929.01"/><polyline class="cls-12" points="206.52 930.13 205.21 930.87 205.2 932.37"/><line class="cls-13" x1="205.16" y1="936.91" x2="205.05" y2="949.18"/><line class="cls-14" x1="205.04" y1="951.45" x2="204.31" y2="1036.42"/><polyline class="cls-12" points="204.29 1038.69 204.28 1040.19 205.57 1040.95"/><line class="cls-15" x1="209.49" y1="1043.26" x2="220.07" y2="1049.49"/><line class="cls-16" x1="222.03" y1="1050.64" x2="295.3" y2="1093.75"/><polyline class="cls-12" points="297.25 1094.9 298.55 1095.66 299.85 1094.92"/><line class="cls-17" x1="303.81" y1="1092.69" x2="314.49" y2="1086.64"/><line class="cls-18" x1="316.47" y1="1085.52" x2="390.46" y2="1043.66"/><polyline class="cls-12" points="332.2 617.53 333.51 616.79 333.52 615.29"/><line class="cls-13" x1="333.56" y1="610.75" x2="333.66" y2="598.48"/><line class="cls-14" x1="333.68" y1="596.21" x2="334.4" y2="511.24"/><polyline class="cls-12" points="334.42 508.97 334.44 507.47 333.14 506.71"/><line class="cls-15" x1="329.22" y1="504.4" x2="318.65" y2="498.18"/><line class="cls-16" x1="316.69" y1="497.02" x2="243.42" y2="453.91"/><polyline class="cls-12" points="241.46 452.76 240.17 452 238.86 452.74"/><line class="cls-17" x1="234.91" y1="454.98" x2="224.22" y2="461.02"/><line class="cls-18" x1="222.25" y1="462.14" x2="148.26" y2="504"/><polyline class="cls-12" points="146.28 505.12 144.97 505.86 144.96 507.36"/><line class="cls-13" x1="144.92" y1="511.9" x2="144.82" y2="524.17"/><line class="cls-14" x1="144.8" y1="526.44" x2="144.08" y2="611.42"/><polyline class="cls-12" points="144.06 613.69 144.04 615.19 145.34 615.95"/><line class="cls-15" x1="149.25" y1="618.25" x2="159.83" y2="624.48"/><line class="cls-16" x1="161.79" y1="625.63" x2="235.06" y2="668.74"/><polyline class="cls-12" points="237.02 669.89 238.31 670.65 239.62 669.92"/><line class="cls-17" x1="243.57" y1="667.68" x2="254.26" y2="661.63"/><line class="cls-18" x1="256.23" y1="660.51" x2="330.22" y2="618.65"/><polygon class="cls-10" points="106.66 1423.34 107.13 1368.28 59.66 1340.35 11.73 1367.47 11.26 1422.53 58.73 1450.46 106.66 1423.34"/><polygon class="cls-12" points="159.05 1334.22 159.51 1279.17 112.05 1251.24 64.11 1278.36 63.64 1333.41 111.11 1361.34 159.05 1334.22"/><polygon class="cls-10" points="104.51 1243.26 104.98 1188.2 57.51 1160.27 9.57 1187.39 9.11 1242.45 56.58 1270.38 104.51 1243.26"/><polygon class="cls-12" points="113.71 1055.58 114.18 1000.53 66.71 972.6 18.77 999.72 18.31 1054.77 65.77 1082.7 113.71 1055.58"/><polygon class="cls-19" points="282.63 970.2 283.28 893.77 217.38 854.99 150.83 892.64 150.18 969.07 216.08 1007.85 282.63 970.2"/><polygon class="cls-11" points="377.68 1308.21 378.39 1224.67 306.36 1182.29 233.61 1223.44 232.9 1306.98 304.94 1349.37 377.68 1308.21"/><polygon class="cls-11" points="451.26 1168.07 451.97 1084.53 379.94 1042.14 307.2 1083.3 306.49 1166.84 378.52 1209.22 451.26 1168.07"/><polygon class="cls-11" points="380.06 1027.6 380.77 944.06 308.74 901.67 236 942.83 235.29 1026.37 307.32 1068.75 380.06 1027.6"/><polygon class="cls-11" points="308.92 880.87 309.63 797.33 237.59 754.94 164.85 796.1 164.14 879.64 236.17 922.03 308.92 880.87"/><polygon class="cls-11" points="382.5 741.54 383.2 658 311.17 615.61 238.43 656.77 237.72 740.31 309.75 782.7 382.5 741.54"/><polygon class="cls-12" points="463.83 882.19 464.54 798.64 392.5 756.26 319.76 797.41 319.05 880.96 391.08 923.34 463.83 882.19"/><polygon class="cls-12" points="215.92 1026.2 216.63 942.66 144.6 900.28 71.86 941.43 71.15 1024.97 143.18 1067.36 215.92 1026.2"/><polygon class="cls-11" points="144.78 879.48 145.49 795.94 73.45 753.55 0.71 794.71 0 878.25 72.03 920.63 144.78 879.48"/><polygon class="cls-12" points="295.48 1166.74 296.19 1083.2 224.15 1040.82 151.41 1081.97 150.7 1165.52 222.73 1207.9 295.48 1166.74"/><polygon class="cls-11" points="221.89 1306.89 222.6 1223.35 150.57 1180.96 77.82 1222.12 77.11 1305.66 149.15 1348.05 221.89 1306.89"/><ellipse class="cls-20" cx="526.59" cy="832.67" rx="10.31" ry="10.32" transform="translate(-310.52 1352.18) rotate(-89.51)"/><ellipse class="cls-20" cx="525.56" cy="954.84" rx="10.31" ry="10.32" transform="translate(-433.71 1472.27) rotate(-89.51)"/><polygon class="cls-12" points="525.54 957.05 526.6 832.29 419.02 769 310.39 830.46 309.33 955.22 416.9 1018.52 525.54 957.05"/><ellipse class="cls-20" cx="416.9" cy="1018.52" rx="10.31" ry="10.32" transform="translate(-605.11 1426.76) rotate(-89.51)"/><ellipse class="cls-20" cx="309.35" cy="953.01" rx="10.31" ry="10.32" transform="translate(-646.25 1254.25) rotate(-89.51)"/><ellipse class="cls-20" cx="310.39" cy="830.84" rx="10.31" ry="10.32" transform="translate(-523.06 1134.16) rotate(-89.51)"/><ellipse class="cls-20" cx="419.02" cy="769" rx="10.31" ry="10.32" transform="translate(-353.5 1181.48) rotate(-89.51)"/><polygon class="cls-12" points="398.64 739.52 399.7 614.76 292.12 551.46 183.49 612.93 182.43 737.69 290 800.98 398.64 739.52"/><ellipse class="cls-20" cx="290" cy="800.98" rx="10.31" ry="10.32" transform="translate(-513.41 1084.18) rotate(-89.51)"/><ellipse class="cls-20" cx="182.45" cy="735.47" rx="10.31" ry="10.32" transform="translate(-554.55 911.67) rotate(-89.51)"/><ellipse class="cls-20" cx="183.49" cy="613.3" rx="10.31" ry="10.32" transform="translate(-431.35 791.58) rotate(-89.51)"/><ellipse class="cls-20" cx="292.12" cy="551.46" rx="10.31" ry="10.32" transform="translate(-261.8 838.9) rotate(-89.51)"/><ellipse class="cls-20" cx="399.69" cy="615.14" rx="10.31" ry="10.32" transform="translate(-218.82 1009.6) rotate(-89.51)"/><ellipse class="cls-20" cx="398.66" cy="737.31" rx="10.31" ry="10.32" transform="translate(-342.01 1129.69) rotate(-89.51)"/><polygon class="cls-12" points="419.39 1201.77 420.45 1077.01 312.87 1013.72 204.24 1075.18 203.18 1199.94 310.75 1263.23 419.39 1201.77"/><ellipse class="cls-20" cx="310.75" cy="1263.24" rx="10.31" ry="10.32" transform="translate(-955.08 1563.25) rotate(-89.51)"/><ellipse class="cls-20" cx="203.2" cy="1197.73" rx="10.31" ry="10.32" transform="translate(-996.21 1390.75) rotate(-89.51)"/><ellipse class="cls-20" cx="204.24" cy="1075.56" rx="10.31" ry="10.32" transform="translate(-873.02 1270.66) rotate(-89.51)"/><ellipse class="cls-20" cx="312.87" cy="1013.72" rx="10.31" ry="10.32" transform="translate(-703.46 1317.97) rotate(-89.51)"/><ellipse class="cls-20" cx="420.44" cy="1077.39" rx="10.31" ry="10.32" transform="translate(-660.48 1488.67) rotate(-89.51)"/><ellipse class="cls-20" cx="419.4" cy="1199.56" rx="10.31" ry="10.32" transform="translate(-783.67 1608.77) rotate(-89.51)"/><polygon class="cls-12" points="285.39 1419.77 286.45 1295.01 178.87 1231.71 70.24 1293.18 69.18 1417.94 176.75 1481.23 285.39 1419.77"/><ellipse class="cls-20" cx="176.75" cy="1481.24" rx="10.31" ry="10.32" transform="translate(-1305.93 1645.41) rotate(-89.51)"/><ellipse class="cls-20" cx="69.2" cy="1415.73" rx="10.31" ry="10.32" transform="translate(-1347.06 1472.9) rotate(-89.51)"/><ellipse class="cls-20" cx="70.24" cy="1293.56" rx="10.31" ry="10.32" transform="translate(-1223.87 1352.81) rotate(-89.51)"/><ellipse class="cls-20" cx="178.87" cy="1231.72" rx="10.31" ry="10.32" transform="translate(-1054.32 1400.13) rotate(-89.51)"/><ellipse class="cls-20" cx="286.44" cy="1295.39" rx="10.31" ry="10.32" transform="translate(-1011.33 1570.83) rotate(-89.51)"/><ellipse class="cls-20" cx="285.4" cy="1417.56" rx="10.31" ry="10.32" transform="translate(-1134.53 1690.92) rotate(-89.51)"/><polygon class="cls-12" points="407.39 1644.77 408.45 1520.01 300.87 1456.71 192.24 1518.18 191.18 1642.94 298.75 1706.23 407.39 1644.77"/><ellipse class="cls-20" cx="298.75" cy="1706.24" rx="10.31" ry="10.32" transform="translate(-1409.96 1990.49) rotate(-89.51)"/><ellipse class="cls-20" cx="191.2" cy="1640.73" rx="10.31" ry="10.32" transform="translate(-1451.09 1817.99) rotate(-89.51)"/><ellipse class="cls-20" cx="192.24" cy="1518.56" rx="10.31" ry="10.32" transform="translate(-1327.9 1697.9) rotate(-89.51)"/><ellipse class="cls-20" cx="300.87" cy="1456.72" rx="10.31" ry="10.32" transform="translate(-1158.34 1745.21) rotate(-89.51)"/><ellipse class="cls-20" cx="408.44" cy="1520.39" rx="10.31" ry="10.32" transform="translate(-1115.36 1915.91) rotate(-89.51)"/><ellipse class="cls-20" cx="407.4" cy="1642.56" rx="10.31" ry="10.32" transform="translate(-1238.55 2036.01) rotate(-89.51)"/></g><g class="cls-5"><g class="cls-6"><g class="cls-7"><polygon class="cls-8" points="1720.97 566.42 1664.03 594.8 1660.15 658.28 1713.21 693.37 1770.15 664.99 1774.03 601.52 1720.97 566.42"/></g><g class="cls-9"><polygon class="cls-8" points="1775.87 676.46 1718.93 704.84 1715.06 768.31 1768.12 803.41 1825.06 775.03 1828.94 711.55 1775.87 676.46"/></g></g><polygon class="cls-12" points="1765.6 349.65 1765.21 286.06 1709.9 254.61 1655 286.75 1655.4 350.34 1710.7 381.79 1765.6 349.65"/><polygon class="cls-10" points="1787.27 266.3 1786.56 349.85 1858.59 392.23 1931.34 351.07 1932.05 267.53 1860.01 225.15 1787.27 266.3"/><polygon class="cls-11" points="1948.88 267.68 1948.17 351.22 2020.21 393.6 2092.95 352.45 2093.66 268.9 2021.63 226.52 1948.88 267.68"/><polygon class="cls-12" points="1712.8 407.01 1712.09 490.56 1784.13 532.94 1856.87 491.78 1857.58 408.24 1785.55 365.86 1712.8 407.01"/><polyline class="cls-12" points="1853.83 674.01 1852.53 674.75 1852.51 676.25"/><line class="cls-13" x1="1852.47" y1="680.79" x2="1852.37" y2="693.06"/><line class="cls-14" x1="1852.35" y1="695.33" x2="1851.63" y2="780.3"/><polyline class="cls-12" points="1851.61 782.57 1851.6 784.07 1852.89 784.83"/><line class="cls-15" x1="1856.81" y1="787.14" x2="1867.39" y2="793.36"/><line class="cls-16" x1="1869.35" y1="794.52" x2="1942.61" y2="837.63"/><polyline class="cls-12" points="1944.57 838.78 1945.86 839.54 1947.17 838.8"/><line class="cls-17" x1="1951.13" y1="836.56" x2="1961.81" y2="830.52"/><line class="cls-18" x1="1963.79" y1="829.4" x2="2037.78" y2="787.54"/><polyline class="cls-12" points="2039.75 786.42 2041.06 785.68 2041.07 784.18"/><line class="cls-13" x1="2041.11" y1="779.64" x2="2041.22" y2="767.37"/><line class="cls-14" x1="2041.23" y1="765.1" x2="2041.96" y2="680.13"/><polyline class="cls-12" points="2041.98 677.85 2041.99 676.35 2040.7 675.59"/><line class="cls-15" x1="2036.78" y1="673.29" x2="2026.2" y2="667.06"/><line class="cls-16" x1="2024.24" y1="665.91" x2="1950.97" y2="622.8"/><polyline class="cls-12" points="1949.01 621.65 1947.72 620.88 1946.42 621.62"/><line class="cls-17" x1="1942.46" y1="623.86" x2="1931.78" y2="629.91"/><line class="cls-18" x1="1929.8" y1="631.03" x2="1855.81" y2="672.89"/><polyline class="cls-12" points="1914.07 1099.01 1912.76 1099.75 1912.75 1101.25"/><line class="cls-13" x1="1912.71" y1="1105.8" x2="1912.61" y2="1118.07"/><line class="cls-14" x1="1912.59" y1="1120.34" x2="1911.87" y2="1205.31"/><polyline class="cls-12" points="1911.85 1207.58 1911.83 1209.08 1913.13 1209.84"/><line class="cls-15" x1="1917.05" y1="1212.15" x2="1927.62" y2="1218.37"/><line class="cls-16" x1="1929.58" y1="1219.52" x2="2002.85" y2="1262.63"/><polyline class="cls-12" points="2004.81 1263.79 2006.1 1264.55 2007.41 1263.81"/><line class="cls-17" x1="2011.36" y1="1261.57" x2="2022.05" y2="1255.53"/><line class="cls-18" x1="2024.02" y1="1254.41" x2="2098.01" y2="1212.55"/><polyline class="cls-12" points="2099.99 1211.43 2101.3 1210.69 2101.31 1209.19"/><line class="cls-13" x1="2101.35" y1="1204.64" x2="2101.45" y2="1192.38"/><line class="cls-14" x1="2101.47" y1="1190.1" x2="2102.19" y2="1105.13"/><polyline class="cls-12" points="2102.21 1102.86 2102.23 1101.36 2100.93 1100.6"/><line class="cls-15" x1="2097.02" y1="1098.29" x2="2086.44" y2="1092.07"/><line class="cls-16" x1="2084.48" y1="1090.92" x2="2011.21" y2="1047.81"/><polyline class="cls-12" points="2009.25 1046.65 2007.96 1045.89 2006.65 1046.63"/><line class="cls-17" x1="2002.7" y1="1048.87" x2="1992.01" y2="1054.91"/><line class="cls-18" x1="1990.04" y1="1056.03" x2="1916.05" y2="1097.89"/><polygon class="cls-10" points="2139.61 293.21 2139.14 348.26 2186.61 376.19 2234.54 349.07 2235.01 294.02 2187.54 266.09 2139.61 293.21"/><polygon class="cls-12" points="2087.22 382.33 2086.76 437.38 2134.22 465.31 2182.16 438.19 2182.63 383.14 2135.16 355.21 2087.22 382.33"/><polygon class="cls-10" points="2141.76 473.29 2141.29 528.34 2188.76 556.27 2236.7 529.15 2237.16 474.1 2189.7 446.17 2141.76 473.29"/><polygon class="cls-12" points="2132.56 660.97 2132.09 716.02 2179.56 743.95 2227.5 716.83 2227.96 661.78 2180.5 633.85 2132.56 660.97"/><polygon class="cls-19" points="1963.64 746.35 1962.99 822.78 2028.89 861.56 2095.44 823.91 2096.09 747.48 2030.19 708.7 1963.64 746.35"/><polygon class="cls-11" points="1868.59 408.34 1867.88 491.88 1939.91 534.26 2012.66 493.11 2013.37 409.56 1941.33 367.18 1868.59 408.34"/><polygon class="cls-11" points="1795.01 548.48 1794.3 632.02 1866.33 674.41 1939.07 633.25 1939.78 549.71 1867.75 507.32 1795.01 548.48"/><polygon class="cls-11" points="1866.21 688.95 1865.5 772.49 1937.53 814.88 2010.27 773.72 2010.98 690.18 1938.95 647.79 1866.21 688.95"/><polygon class="cls-11" points="1937.35 835.68 1936.64 919.22 2008.67 961.6 2081.42 920.45 2082.13 836.91 2010.1 794.52 1937.35 835.68"/><polygon class="cls-11" points="1863.78 975.01 1863.07 1058.55 1935.1 1100.94 2007.84 1059.78 2008.55 976.24 1936.52 933.85 1863.78 975.01"/><polygon class="cls-12" points="1782.44 834.36 1781.73 917.9 1853.77 960.29 1926.51 919.13 1927.22 835.59 1855.19 793.21 1782.44 834.36"/><polygon class="cls-12" points="2030.35 690.34 2029.64 773.89 2101.67 816.27 2174.41 775.12 2175.12 691.57 2103.09 649.19 2030.35 690.34"/><polygon class="cls-11" points="2101.49 837.07 2100.78 920.61 2172.82 963 2245.56 921.84 2246.27 838.3 2174.24 795.91 2101.49 837.07"/><polygon class="cls-12" points="1950.8 549.8 1950.09 633.35 2022.12 675.73 2094.86 634.57 2095.57 551.03 2023.54 508.65 1950.8 549.8"/><polygon class="cls-11" points="2024.38 409.66 2023.67 493.2 2095.7 535.59 2168.45 494.43 2169.16 410.89 2097.12 368.5 2024.38 409.66"/><ellipse class="cls-20" cx="1719.68" cy="883.88" rx="10.31" ry="10.32" transform="matrix(0.01, -1, 1, 0.01, 821.24, 2595.99)"/><ellipse class="cls-20" cx="1720.71" cy="761.71" rx="10.31" ry="10.32" transform="translate(944.43 2475.89) rotate(-89.51)"/><polygon class="cls-12" points="1720.73 759.5 1719.67 884.25 1827.25 947.55 1935.88 886.09 1936.94 761.33 1829.37 698.03 1720.73 759.5"/><ellipse class="cls-20" cx="1829.37" cy="698.03" rx="10.31" ry="10.32" transform="translate(1115.83 2521.41) rotate(-89.51)"/><ellipse class="cls-20" cx="1936.92" cy="763.54" rx="10.31" ry="10.32" transform="translate(1156.97 2693.91) rotate(-89.51)"/><ellipse class="cls-20" cx="1935.88" cy="885.71" rx="10.31" ry="10.32" transform="translate(1033.77 2814.01) rotate(-89.51)"/><ellipse class="cls-20" cx="1827.25" cy="947.55" rx="10.31" ry="10.32" transform="translate(864.22 2766.69) rotate(-89.51)"/><polygon class="cls-12" points="1847.63 977.03 1846.57 1101.79 1954.15 1165.09 2062.78 1103.62 2063.84 978.86 1956.27 915.56 1847.63 977.03"/><ellipse class="cls-20" cx="1956.27" cy="915.56" rx="10.31" ry="10.32" transform="translate(1024.13 2863.99) rotate(-89.51)"/><ellipse class="cls-20" cx="2063.82" cy="981.07" rx="10.31" ry="10.32" transform="translate(1065.26 3036.49) rotate(-89.51)"/><ellipse class="cls-20" cx="2062.78" cy="1103.24" rx="10.31" ry="10.32" transform="translate(942.07 3156.59) rotate(-89.51)"/><ellipse class="cls-20" cx="1954.15" cy="1165.08" rx="10.31" ry="10.32" transform="translate(772.52 3109.27) rotate(-89.51)"/><ellipse class="cls-20" cx="1846.58" cy="1101.41" rx="10.31" ry="10.32" transform="translate(729.53 2938.57) rotate(-89.51)"/><ellipse class="cls-20" cx="1847.61" cy="979.24" rx="10.31" ry="10.32" transform="translate(852.73 2818.48) rotate(-89.51)"/><polygon class="cls-12" points="1826.88 514.77 1825.82 639.53 1933.4 702.83 2042.03 641.37 2043.09 516.61 1935.52 453.31 1826.88 514.77"/><ellipse class="cls-20" cx="1935.52" cy="453.31" rx="10.31" ry="10.32" transform="matrix(0.01, -1, 1, 0.01, 1465.79, 2384.91)"/><ellipse class="cls-20" cx="2043.07" cy="518.82" rx="10.31" ry="10.32" transform="translate(1506.93 2557.42) rotate(-89.51)"/><ellipse class="cls-20" cx="2042.03" cy="640.99" rx="10.31" ry="10.32" transform="translate(1383.73 2677.51) rotate(-89.51)"/><ellipse class="cls-20" cx="1933.4" cy="702.83" rx="10.31" ry="10.32" transform="translate(1214.18 2630.19) rotate(-89.51)"/><ellipse class="cls-20" cx="1825.83" cy="639.16" rx="10.31" ry="10.32" transform="translate(1171.2 2459.49) rotate(-89.51)"/><ellipse class="cls-20" cx="1826.86" cy="516.99" rx="10.31" ry="10.32" transform="translate(1294.39 2339.4) rotate(-89.51)"/><polygon class="cls-12" points="1960.88 296.77 1959.82 421.54 2067.4 484.83 2176.03 423.37 2177.09 298.61 2069.52 235.31 1960.88 296.77"/><ellipse class="cls-20" cx="2069.52" cy="235.31" rx="10.31" ry="10.32" transform="translate(1816.65 2302.76) rotate(-89.51)"/><ellipse class="cls-20" cx="2177.07" cy="300.82" rx="10.31" ry="10.32" transform="translate(1857.78 2475.26) rotate(-89.51)"/><ellipse class="cls-20" cx="2176.03" cy="422.99" rx="10.31" ry="10.32" transform="translate(1734.59 2595.36) rotate(-89.51)"/><ellipse class="cls-20" cx="2067.4" cy="484.83" rx="10.31" ry="10.32" transform="translate(1565.03 2548.04) rotate(-89.51)"/><ellipse class="cls-20" cx="1959.83" cy="421.16" rx="10.31" ry="10.32" transform="matrix(0.01, -1, 1, 0.01, 1522.05, 2377.34)"/><ellipse class="cls-20" cx="1960.86" cy="298.99" rx="10.31" ry="10.32" transform="translate(1645.24 2257.24) rotate(-89.51)"/><polygon class="cls-12" points="1838.88 71.78 1837.82 196.53 1945.4 259.83 2054.03 198.37 2055.09 73.61 1947.52 10.31 1838.88 71.78"/><ellipse class="cls-20" cx="1947.52" cy="10.31" rx="10.31" ry="10.32" transform="translate(1920.67 1957.67) rotate(-89.51)"/><ellipse class="cls-20" cx="2055.07" cy="75.82" rx="10.31" ry="10.32" transform="translate(1961.81 2130.18) rotate(-89.51)"/><ellipse class="cls-20" cx="2054.03" cy="197.99" rx="10.31" ry="10.32" transform="translate(1838.62 2250.27) rotate(-89.51)"/><ellipse class="cls-20" cx="1945.4" cy="259.83" rx="10.31" ry="10.32" transform="translate(1669.06 2202.95) rotate(-89.51)"/><ellipse class="cls-20" cx="1837.83" cy="196.16" rx="10.31" ry="10.32" transform="matrix(0.01, -1, 1, 0.01, 1626.08, 2032.25)"/><ellipse class="cls-20" cx="1838.86" cy="73.99" rx="10.31" ry="10.32" transform="translate(1749.27 1912.16) rotate(-89.51)"/></g><ellipse class="cls-21" cx="1103.05" cy="1099.47" rx="259.06" ry="72.1"/><ellipse class="cls-22" cx="1103.14" cy="1086.2" rx="162.76" ry="45.3"/><path class="cls-23" d="M1436,1271.57c0,54.59-139.91,107.41-346.87,107.41S742.4,1324.69,742.4,1270.1,887.62,1166,1094.58,1166,1436,1217,1436,1271.57Z"/><g class="cls-24"><path class="cls-25" d="M1436.18,1133.4c0,54.37-139.35,107-345.49,107s-345.35-54.07-345.35-108.44S890,1028.23,1096.12,1028.23,1436.18,1079,1436.18,1133.4Z"/></g><g class="cls-24"><path class="cls-25" d="M1436.1,1119.54c0,54.37-139.35,107-345.49,107s-345.35-54.07-345.35-108.44S889.9,1014.37,1096,1014.37,1436.1,1065.17,1436.1,1119.54Z"/></g><g class="cls-24"><path class="cls-25" d="M1436.39,1146.81c0,54.37-139.35,107-345.49,107s-345.35-54.07-345.35-108.44,144.64-103.71,350.78-103.71S1436.39,1092.44,1436.39,1146.81Z"/></g><path class="cls-26" d="M1011,1123.55s-132.86-28.76-34-66"/><path class="cls-26" d="M1242.8,1109.47s56.28-25.18-10.46-50.82"/><line class="cls-27" x1="745.59" y1="1098.22" x2="1435.56" y2="1098.22"/><line class="cls-27" x1="1102.58" y1="1211.09" x2="1102.58" y2="999.05"/><line class="cls-27" x1="846.43" y1="1179.24" x2="1331.87" y2="1027.61"/><line class="cls-27" x1="1334.29" y1="1179.87" x2="875.63" y2="1021.7"/><path class="cls-28" d="M1435.91,1274h0c-1.52,56.56-127.19,104.86-330.52,104.86-201.5,0-359.05-50.33-363-106.38l.35,1.53L570.18,1514.89l1066.92,12.43Z"/><path class="cls-29" d="M1267.65,1088.13a12.14,12.14,0,0,0-2-7c272.46-252.82,590.54-507.18,863-760H88.65l851.25,760.34a11.59,11.59,0,0,0-2.55,7.26c.94,21.33,79.09,38,138.3,41.41C1164.8,1135.29,1266.2,1113.67,1267.65,1088.13Z"/><rect class="cls-1" x="142.61" y="323.13" width="1921.03" height="1080"/><path class="cls-30" d="M1436.1,1104.19c0,54.37-139.35,107-345.49,107s-345.35-54.07-345.35-108.44S889.9,999,1096,999,1436.1,1049.82,1436.1,1104.19Z"/><path class="cls-31" d="M1436.1,1104.19c0,54.37-139.35,107-345.49,107s-345.35-54.07-345.35-108.44S889.9,999,1096,999,1436.1,1049.82,1436.1,1104.19Z"/><g class="cls-24"><path class="cls-32" d="M1451.27,1273c0,61.84-145.62,121.67-361,121.67s-360.88-61.5-360.88-123.34,151.15-118,366.56-118S1451.27,1211.14,1451.27,1273Z"/></g><path class="cls-33" d="M1565.73,1151.6c0,78.61-191,154.68-473.43,154.68s-473.24-78.18-473.24-156.79,198.21-149.95,480.68-149.95S1565.73,1073,1565.73,1151.6Z"/></g></g></g></g></svg>