<svg xmlns="http://www.w3.org/2000/svg" viewBox="0 0 91.23 104.66"><defs><style>.cls-1{opacity:0.77;}.cls-2{fill:#b455ff;}</style></defs><title>Hawk</title><g id="Layer_2" data-name="Layer 2"><g id="Layer_2-2" data-name="Layer 2"><path class="cls-2" d="M13.89,57.29A23.72,23.72,0,0,0,.53,64.7L0,65.34v5.19C3.88,62.39,12.29,58.08,13.89,57.29Z"/><path class="cls-2" d="M57.19,50.17a2.93,2.93,0,0,0,1.83.69s0,0,0,0h0a2.28,2.28,0,0,0-.67-1.54,3.09,3.09,0,0,0-2.15-1v0h0A2.94,2.94,0,0,0,57.19,50.17Z"/><path class="cls-2" d="M90.13,25.36,46.72.3a2.21,2.21,0,0,0-2.21,0L26.88,10.48H47.24a.5.5,0,0,1,.5.5v.31a.5.5,0,0,1-.5.5H24.62l-7.54,4.35H52.89a.5.5,0,0,1,.5.5v.31a.5.5,0,0,1-.5.5H14.83l-7.45,4.3H58.67a.5.5,0,0,1,.5.5v.31a.5.5,0,0,1-.5.5H5.12l-3,1.74c10.69,9,39,17.27,39,17.27-.28-2.94.84-3.55.84-3.55,1,6.52,9.65,7.22,9.65,7.22C48.77,43.27,49,40.78,49,40.78c1.15,2.13,5.07,3.28,5.07,3.28,7.39,2.7,6.25,7.66,6.25,7.66,5.54,3.26,3.13,6.13,3.13,6.13a5.53,5.53,0,0,0-2.33-1.67,5.38,5.38,0,0,0-1.6-.32q-1.29.09-2.62.21-1.94.18-3.77.42A112.93,112.93,0,0,0,1.94,79.79l42.57,24.58a2.21,2.21,0,0,0,2.21,0l13.41-7.74H45.6a.5.5,0,0,1-.49-.49v-.31a.5.5,0,0,1,.49-.49H62.38L69.9,91H40a.5.5,0,0,1-.49-.49v-.31a.5.5,0,0,1,.49-.49H72.15l7.43-4.29H34.29a.5.5,0,0,1-.49-.49v-.31a.5.5,0,0,1,.49-.49H81.82l8.3-4.79a2.21,2.21,0,0,0,1.11-1.92V27.27A2.21,2.21,0,0,0,90.13,25.36ZM37.85,14.06a.44.44,0,0,1,0-.87A.44.44,0,0,1,37.85,14.06ZM48.11,3.8a.44.44,0,0,1,0-.87A.44.44,0,0,1,48.11,3.8ZM24.32,20.39a.44.44,0,0,1,0-.87A.44.44,0,0,1,24.32,20.39ZM47,20a.44.44,0,0,1,0-.87A.44.44,0,0,1,47,20Zm8.29-6.55a.44.44,0,0,1,0-.87A.44.44,0,0,1,55.31,13.41Zm-34,14a.44.44,0,0,1,0-.87A.44.44,0,0,1,21.27,27.38Zm6.24,7.55a.44.44,0,0,1,0-.87A.44.44,0,0,1,27.51,34.93Zm9-5.37a.44.44,0,0,1-.87,0v-.22a.44.44,0,0,1,.87,0Zm7,7.2a.44.44,0,0,1,0-.87A.44.44,0,0,1,43.53,36.76Zm5.89-7a.44.44,0,0,1,0-.87A.44.44,0,0,1,49.42,29.78Zm12.44,5a.44.44,0,0,1,0-.87A.44.44,0,0,1,61.86,34.8ZM47.24,100.27a.44.44,0,0,1,0,.87A.44.44,0,0,1,47.24,100.27Zm11.13-7a.44.44,0,0,1,0,.87A.44.44,0,0,1,58.37,93.29ZM71,86.52a.44.44,0,0,1,0,.87A.44.44,0,0,1,71,86.52Zm-19.64.22a.44.44,0,0,1,0,.87A.44.44,0,0,1,51.39,86.74ZM37.85,91.11a.44.44,0,0,1,0,.87A.44.44,0,0,1,37.85,91.11ZM12.35,78.46a.44.44,0,0,1,0-.87A.44.44,0,0,1,12.35,78.46Zm10.22,2.17a.44.44,0,0,1,0-.87A.44.44,0,0,1,22.57,80.63Zm1.81-10.49a.44.44,0,0,1,0-.87A.44.44,0,0,1,24.39,70.14Zm9.76,0a.44.44,0,0,1,0-.87A.44.44,0,0,1,34.14,70.15Zm3.27,6.55a.44.44,0,0,1,0-.87A.44.44,0,0,1,37.42,76.7ZM48.77,63.82a.44.44,0,0,1,0-.87A.44.44,0,0,1,48.77,63.82Zm3.49,11.35a.44.44,0,0,1,0-.87A.44.44,0,0,1,52.26,75.17Zm9.82-11.35a.44.44,0,0,1,0-.87A.44.44,0,0,1,62.08,63.82ZM66.87,44a.44.44,0,0,1,0-.87A.44.44,0,0,1,66.87,44Zm3.94,29.87a.44.44,0,0,1,0-.87A.44.44,0,0,1,70.81,73.86Zm0-51.95a.44.44,0,0,1,0-.87A.44.44,0,0,1,70.81,21.92Zm2.9,32a.44.44,0,0,1,0-.87A.44.44,0,0,1,73.71,53.94Zm1.69,9.66a.44.44,0,0,1,0-.87A.44.44,0,0,1,75.39,63.61Zm2-24.88a.44.44,0,0,1,0-.87A.44.44,0,0,1,77.36,38.72ZM80,80.63a.44.44,0,0,1,0-.87A.44.44,0,0,1,80,80.63Zm7.2-50.2a.44.44,0,0,1,0-.87A.44.44,0,0,1,87.18,30.43Zm.87,23.79a.44.44,0,0,1,0-.87A.44.44,0,0,1,88.05,54.22ZM89.8,70.59a.44.44,0,0,1,0-.87A.44.44,0,0,1,89.8,70.59Zm.44-31.43a.44.44,0,0,1,0-.87A.44.44,0,0,1,90.24,39.16Z"/></g></g></svg>