<svg xmlns="http://www.w3.org/2000/svg" viewBox="0 0 186.82 57.74"><defs><style>.cls-1{fill:#b455ff;}</style></defs><title>iecsefull</title><g id="Layer_2" data-name="Layer 2"><g id="Layer_1-2" data-name="Layer 1"><path class="cls-1" d="M41.7,20.54A18.88,18.88,0,0,0,32,18a19.08,19.08,0,0,0-9.76,2.52,18,18,0,0,0-6.83,7.05A20.92,20.92,0,0,0,12.9,37.84a20.2,20.2,0,0,0,2.6,10.25,18.46,18.46,0,0,0,7.24,7.09,21.68,21.68,0,0,0,10.65,2.56A22,22,0,0,0,42,56.1a16.72,16.72,0,0,0,6.5-4.75l-3-3.42a14.59,14.59,0,0,1-5.27,3.82,16.85,16.85,0,0,1-6.68,1.3,15.52,15.52,0,0,1-10.69-3.75,14,14,0,0,1-4.68-9.84H50.84l.07-1.63a21.13,21.13,0,0,0-2.45-10.28A17.91,17.91,0,0,0,41.7,20.54Zm-23.54,15a14.14,14.14,0,0,1,4.34-9.39A13.28,13.28,0,0,1,32,22.54a13.38,13.38,0,0,1,9.54,3.6,14.15,14.15,0,0,1,4.34,9.39Z"/><path class="cls-1" d="M68,24.51a15.3,15.3,0,0,1,7.61-1.89,14.54,14.54,0,0,1,6.46,1.45A12.32,12.32,0,0,1,87,28.41l3.94-2.67A15,15,0,0,0,84.66,20a20.07,20.07,0,0,0-9-2,21.06,21.06,0,0,0-10.36,2.52,18.35,18.35,0,0,0-7.17,7.05,20.21,20.21,0,0,0-2.6,10.25,20.41,20.41,0,0,0,2.6,10.28,18.27,18.27,0,0,0,7.17,7.09,21,21,0,0,0,10.36,2.52,20.12,20.12,0,0,0,9-2A14.93,14.93,0,0,0,90.93,50L87,47.34a12,12,0,0,1-4.9,4.31,14.86,14.86,0,0,1-6.46,1.41A15.29,15.29,0,0,1,68,51.17a13.36,13.36,0,0,1-5.27-5.35,16.33,16.33,0,0,1-1.89-8,16.39,16.39,0,0,1,1.89-7.94A13.3,13.3,0,0,1,68,24.51Z"/><path class="cls-1" d="M177.61,20.54A18.88,18.88,0,0,0,167.89,18a19.08,19.08,0,0,0-9.76,2.52,18,18,0,0,0-6.83,7.05,20.92,20.92,0,0,0-2.49,10.25,20.21,20.21,0,0,0,2.6,10.25,18.46,18.46,0,0,0,7.24,7.09,21.68,21.68,0,0,0,10.65,2.56,22,22,0,0,0,8.58-1.63,16.72,16.72,0,0,0,6.5-4.75l-3-3.42a14.59,14.59,0,0,1-5.27,3.82,16.85,16.85,0,0,1-6.68,1.3,15.52,15.52,0,0,1-10.69-3.75,14,14,0,0,1-4.68-9.84h32.67l.07-1.63a21.13,21.13,0,0,0-2.45-10.28A17.91,17.91,0,0,0,177.61,20.54Zm-23.54,15a14.14,14.14,0,0,1,4.34-9.39,14.34,14.34,0,0,1,19,0,14.15,14.15,0,0,1,4.34,9.39Z"/><path class="cls-1" d="M177.61,20.54A18.88,18.88,0,0,0,167.89,18a19.08,19.08,0,0,0-9.76,2.52,18,18,0,0,0-6.83,7.05,20.92,20.92,0,0,0-2.49,10.25,20.21,20.21,0,0,0,2.6,10.25,18.46,18.46,0,0,0,7.24,7.09,21.68,21.68,0,0,0,10.65,2.56,22,22,0,0,0,8.58-1.63,16.72,16.72,0,0,0,6.5-4.75l-3-3.42a14.59,14.59,0,0,1-5.27,3.82,16.85,16.85,0,0,1-6.68,1.3,15.52,15.52,0,0,1-10.69-3.75,14,14,0,0,1-4.68-9.84h32.67l.07-1.63a21.13,21.13,0,0,0-2.45-10.28A17.91,17.91,0,0,0,177.61,20.54Zm-23.54,15a14.14,14.14,0,0,1,4.34-9.39,14.34,14.34,0,0,1,19,0,14.15,14.15,0,0,1,4.34,9.39Z"/><rect class="cls-1" x="2.06" y="18.31" width="5.27" height="39.06"/><path class="cls-1" d="M118.05,35,119.18,22H110L109,17.52h10.54l.84-9.42h4.69c-.05.87-.09,1.72-.16,2.57-.15,1.69-.32,3.39-.48,5.08-.06.59-.09,1.18-.17,1.77-.06.41.06.58.51.67a25.39,25.39,0,0,1,12.26,6.27,19,19,0,0,1,6.22,11.43c.82,6.07-1.18,11.26-5.82,15.56a23.42,23.42,0,0,1-13.35,6A27.06,27.06,0,0,1,104,52.39a20,20,0,0,1-8-11.93s0-.08,0-.15h4.82c.56,1.2,1,2.42,1.68,3.54a18.42,18.42,0,0,0,9.83,7.89A22.07,22.07,0,0,0,123.31,53c6-.83,10.77-3.39,13.65-8.48a12.18,12.18,0,0,0,.77-10.72c-1.82-4.8-5.46-8-10.4-10-1.08-.44-2.21-.76-3.46-1.19l-1.17,13.12h.86c2.73,0,5.45,0,8.18,0,.48,0,.69.09.77.58.21,1.29.52,2.56.8,3.92h-11c-.13,1.49-.26,2.94-.38,4.38-.14,1.61-.26,3.23-.41,4.84,0,.13-.21.35-.33.35-1.46,0-2.91,0-4.46,0l.89-10.13c-1-.31-2.09-.57-3.11-.94-6.87-2.46-12-6.68-14.41-13.21S99,12.65,104,7.27A22.78,22.78,0,0,1,115.22.85a25.42,25.42,0,0,1,8.53-.78c8.52.67,15.35,4.1,20,10.91a23.46,23.46,0,0,1,1.35,2.39c.24.46.41.94.65,1.51-1.75,0-3.4,0-5,0-.14,0-.33-.19-.41-.33-2.89-5.18-7.54-8.22-13.57-9.48a20.79,20.79,0,0,0-16.28,2.86A13.57,13.57,0,0,0,104,18c-.49,4.35,1.11,8,4.13,11.28A20.23,20.23,0,0,0,118.05,35Z"/><circle class="cls-1" cx="4.77" cy="6.01" r="4.77"/><rect class="cls-1" x="4.77" y="3.84" width="104.32" height="4.35"/></g></g></svg>