<svg xmlns="http://www.w3.org/2000/svg" viewBox="0 0 64.3 64.3"><defs><style>.cls-1{fill:#fff;}</style></defs><title>IECSE Logo</title><g id="Layer_2" data-name="Layer 2"><g id="Layer_2-2" data-name="Layer 2"><path class="cls-1" d="M34.7,7.25a23.19,23.19,0,0,0-7.59.67,20.39,20.39,0,0,0-10,5.55c-4.41,4.65-5.63,10-3.44,15.75s6.7,9.3,12.81,11.43c.91.32,1.85.54,2.76.81l-.79,8.77c1.37,0,2.67,0,4,0,.1,0,.28-.19.29-.31.14-1.39.24-2.79.37-4.18s.22-2.5.34-3.79h9.78c-.25-1.17-.52-2.27-.71-3.39-.07-.42-.26-.51-.68-.51-2.42,0-4.85,0-7.27,0h-.77l1-11.35c1.11.37,2.11.64,3.07,1,4.39,1.75,7.63,4.53,9.24,8.68a10.29,10.29,0,0,1-.69,9.28C43.88,50.09,39.6,52.3,34.31,53a20.12,20.12,0,0,1-9.71-1.08,16.3,16.3,0,0,1-8.74-6.83c-.58-1-1-2-1.5-3.06H10.07c0,.06,0,.1,0,.13a17.31,17.31,0,0,0,7.1,10.32A24.55,24.55,0,0,0,35,56.89a21.08,21.08,0,0,0,11.86-5.2C51,48,52.8,43.48,52.07,38.23a16.3,16.3,0,0,0-5.53-9.89,22.79,22.79,0,0,0-10.9-5.43c-.4-.08-.51-.23-.45-.58.08-.51.11-1,.16-1.53.14-1.46.29-2.93.42-4.39.07-.73.1-1.47.15-2.22H31.75L31,22.34H21.63l.83,3.92h8.19l-1,11.18a18.11,18.11,0,0,1-8.84-4.9c-2.68-2.8-4.1-6-3.67-9.76a11.72,11.72,0,0,1,5.75-8.72,18.91,18.91,0,0,1,14.47-2.48c5.36,1.09,9.5,3.71,12.06,8.2.07.12.24.28.36.28,1.47,0,2.93,0,4.49,0-.21-.49-.37-.91-.58-1.31a20.15,20.15,0,0,0-1.2-2.07C48.35,10.79,42.28,7.83,34.7,7.25Z"/><path class="cls-1" d="M32.15,64.3A32.16,32.16,0,0,1,19.63,2.53a32.16,32.16,0,0,1,25,59.24A32,32,0,0,1,32.15,64.3Zm0-61.07A28.92,28.92,0,1,0,61.07,32.15,29,29,0,0,0,32.15,3.22Z"/></g></g></svg>