<svg xmlns="http://www.w3.org/2000/svg" xmlns:xlink="http://www.w3.org/1999/xlink" viewBox="0 0 1920 1080"><defs><style>.cls-1,.cls-12,.cls-13,.cls-14,.cls-15,.cls-16,.cls-17,.cls-18,.cls-21,.cls-22,.cls-25,.cls-26,.cls-27,.cls-31,.cls-32{fill:none;}.cls-2{isolation:isolate;}.cls-3{fill:url(#radial-gradient);}.cls-4{clip-path:url(#clip-path);}.cls-5{opacity:0.77;}.cls-6{opacity:0.6;}.cls-10,.cls-27,.cls-7{opacity:0.35;}.cls-11,.cls-8{fill:#5c59e2;}.cls-30,.cls-9{opacity:0.2;}.cls-10{fill:#6e2bd8;}.cls-11{opacity:0.21;}.cls-12,.cls-13,.cls-14,.cls-15,.cls-16,.cls-17,.cls-18{stroke:#8b54e2;}.cls-12,.cls-13,.cls-14,.cls-15,.cls-16,.cls-17,.cls-18,.cls-21,.cls-22,.cls-23,.cls-25,.cls-26,.cls-27,.cls-31,.cls-32,.cls-33{stroke-miterlimit:10;}.cls-13{stroke-dasharray:2.73 4.54 2.73 4.54;}.cls-14{stroke-dasharray:2.73 4.54 2.73 4.54 2.73 4.54;}.cls-15{stroke-dasharray:2.73 4.55 2.73 4.55;}.cls-16{stroke-dasharray:2.73 4.55 2.73 4.55 2.73 4.55;}.cls-17{stroke-dasharray:2.73 4.55 2.73 4.55;}.cls-18{stroke-dasharray:2.73 4.55 2.73 4.55 2.73 4.55;}.cls-19{fill:#6e00c3;opacity:0.38;}.cls-20{fill:#9e4aff;}.cls-21{stroke:#730b99;opacity:0.5;}.cls-22,.cls-26{stroke:#a10dd1;}.cls-22,.cls-25,.cls-27,.cls-32{stroke-width:2px;}.cls-23,.cls-33{fill:#7a18a8;fill-opacity:0.2;stroke:#7316a8;}.cls-23{stroke-dasharray:4 5 4 5 4 5;}.cls-24{opacity:0.75;}.cls-25,.cls-31,.cls-32{stroke:#8016a8;}.cls-25{stroke-dasharray:19.87 9.93 19.87 9.93 19.87 9.93;}.cls-26{stroke-width:6px;}.cls-27{stroke:#9409ce;}.cls-28{fill:#8e2fd1;opacity:0.3;mix-blend-mode:screen;}.cls-29{opacity:0.91;mix-blend-mode:lighten;fill:url(#linear-gradient);}.cls-30{fill:#7e18a8;}.cls-31{stroke-dasharray:4.02 5.03 4.02 5.03 4.02 5.03;}.cls-32{stroke-dasharray:19.86 9.93 19.86 9.93 19.86 9.93;}.cls-33{stroke-width:3px;}</style><radialGradient id="radial-gradient" cx="959.48" cy="540" r="778.85" gradientTransform="translate(0)" gradientUnits="userSpaceOnUse"><stop offset="0" stop-color="#1b1464"/><stop offset="1"/></radialGradient><clipPath id="clip-path"><rect class="cls-1" x="-0.52" width="1921.03" height="1080"/></clipPath><linearGradient id="linear-gradient" x1="929.71" y1="995.77" x2="929.71" y2="-155.13" gradientUnits="userSpaceOnUse"><stop offset="0" stop-color="#70a"/><stop offset="1" stop-color="#225" stop-opacity="0"/></linearGradient></defs><title>new</title><g class="cls-2"><g id="text"><rect class="cls-3" x="-0.52" width="1921.03" height="1080"/><g class="cls-4"><g class="cls-5"><g class="cls-6"><g class="cls-7"><polygon class="cls-8" points="382.17 827 439.11 798.62 442.99 735.14 389.93 700.05 332.99 728.43 329.11 791.9 382.17 827"/></g><g class="cls-9"><polygon class="cls-8" points="327.27 716.97 384.21 688.58 388.09 625.11 335.02 590.01 278.08 618.39 274.2 681.87 327.27 716.97"/></g></g><polygon class="cls-10" points="315.87 1127.12 316.58 1043.58 244.55 1001.19 171.8 1042.35 171.09 1125.89 243.13 1168.27 315.87 1127.12"/><polygon class="cls-11" points="154.26 1125.75 154.97 1042.2 82.93 999.82 10.19 1040.98 9.48 1124.52 81.51 1166.9 154.26 1125.75"/><polygon class="cls-12" points="390.34 986.41 391.05 902.87 319.02 860.48 246.27 901.64 245.56 985.18 317.6 1027.56 390.34 986.41"/><polyline class="cls-12" points="249.31 719.41 250.62 718.68 250.63 717.18"/><line class="cls-13" x1="250.67" y1="712.63" x2="250.77" y2="700.36"/><line class="cls-14" x1="250.79" y1="698.09" x2="251.51" y2="613.12"/><polyline class="cls-12" points="251.53 610.85 251.54 609.35 250.25 608.59"/><line class="cls-15" x1="246.33" y1="606.28" x2="235.75" y2="600.06"/><line class="cls-16" x1="233.8" y1="598.91" x2="160.53" y2="555.79"/><polyline class="cls-12" points="158.57 554.64 157.28 553.88 155.97 554.62"/><line class="cls-17" x1="152.01" y1="556.86" x2="141.33" y2="562.9"/><line class="cls-18" x1="139.35" y1="564.02" x2="65.37" y2="605.88"/><polyline class="cls-12" points="63.39 607 62.08 607.74 62.07 609.24"/><line class="cls-13" x1="62.03" y1="613.78" x2="61.93" y2="626.05"/><line class="cls-14" x1="61.91" y1="628.33" x2="61.18" y2="713.3"/><polyline class="cls-12" points="61.16 715.57 61.15 717.07 62.45 717.83"/><line class="cls-15" x1="66.36" y1="720.13" x2="76.94" y2="726.36"/><line class="cls-16" x1="78.9" y1="727.51" x2="152.17" y2="770.62"/><polyline class="cls-12" points="154.13 771.78 155.42 772.54 156.72 771.8"/><line class="cls-17" x1="160.68" y1="769.56" x2="171.36" y2="763.51"/><line class="cls-18" x1="173.34" y1="762.4" x2="247.33" y2="720.53"/><polyline class="cls-12" points="189.07 294.41 190.38 293.67 190.39 292.17"/><line class="cls-13" x1="190.43" y1="287.63" x2="190.53" y2="275.36"/><line class="cls-14" x1="190.55" y1="273.08" x2="191.27" y2="188.11"/><polyline class="cls-12" points="191.29 185.84 191.31 184.34 190.01 183.58"/><line class="cls-15" x1="186.1" y1="181.28" x2="175.52" y2="175.05"/><line class="cls-16" x1="173.56" y1="173.9" x2="100.29" y2="130.79"/><polyline class="cls-12" points="98.33 129.63 97.04 128.87 95.73 129.61"/><line class="cls-17" x1="91.78" y1="131.85" x2="81.09" y2="137.89"/><line class="cls-18" x1="79.12" y1="139.01" x2="5.13" y2="180.88"/><polyline class="cls-12" points="3.15 182 1.84 182.73 1.83 184.23"/><line class="cls-13" x1="1.79" y1="188.78" x2="1.69" y2="201.05"/><line class="cls-14" x1="1.67" y1="203.32" x2="0.95" y2="288.29"/><polyline class="cls-12" points="0.93 290.56 0.92 292.06 2.21 292.82"/><line class="cls-15" x1="6.13" y1="295.13" x2="16.7" y2="301.35"/><line class="cls-16" x1="18.66" y1="302.5" x2="91.93" y2="345.62"/><polyline class="cls-12" points="93.89 346.77 95.18 347.53 96.49 346.79"/><line class="cls-17" x1="100.44" y1="344.55" x2="111.13" y2="338.51"/><line class="cls-18" x1="113.1" y1="337.39" x2="187.09" y2="295.53"/><polygon class="cls-12" points="15.92 1011.09 16.39 956.04 -31.08 928.11 -79.02 955.23 -79.49 1010.28 -32.02 1038.21 15.92 1011.09"/><polygon class="cls-19" points="139.5 647.07 140.15 570.64 74.25 531.86 7.7 569.51 7.05 645.95 72.95 684.73 139.5 647.07"/><polygon class="cls-11" points="234.55 985.09 235.26 901.54 163.23 859.16 90.48 900.32 89.77 983.86 161.81 1026.24 234.55 985.09"/><polygon class="cls-11" points="308.13 844.94 308.85 761.4 236.81 719.01 164.07 760.17 163.36 843.71 235.39 886.1 308.13 844.94"/><polygon class="cls-11" points="236.94 704.47 237.65 620.93 165.61 578.54 92.87 619.7 92.16 703.24 164.19 745.63 236.94 704.47"/><polygon class="cls-11" points="165.79 557.74 166.5 474.2 94.47 431.82 21.72 472.97 21.01 556.52 93.05 598.9 165.79 557.74"/><polygon class="cls-11" points="239.37 418.41 240.08 334.87 168.04 292.49 95.3 333.64 94.59 417.18 166.62 459.57 239.37 418.41"/><polygon class="cls-12" points="320.7 559.06 321.41 475.52 249.37 433.13 176.63 474.29 175.92 557.83 247.95 600.22 320.7 559.06"/><polygon class="cls-12" points="72.79 703.08 73.5 619.54 1.47 577.15 -71.27 618.31 -71.98 701.85 0.05 744.23 72.79 703.08"/><polygon class="cls-11" points="1.65 556.35 2.36 472.81 -69.68 430.42 -142.42 471.58 -143.13 555.12 -71.1 597.51 1.65 556.35"/><polygon class="cls-12" points="152.35 843.62 153.06 760.08 81.02 717.69 8.28 758.85 7.57 842.39 79.6 884.77 152.35 843.62"/><polygon class="cls-11" points="78.76 983.76 79.47 900.22 7.44 857.84 -65.31 898.99 -66.01 982.53 6.02 1024.92 78.76 983.76"/><ellipse class="cls-20" cx="383.46" cy="509.55" rx="10.31" ry="10.32" transform="translate(-129.32 888.67) rotate(-89.51)"/><ellipse class="cls-20" cx="382.43" cy="631.71" rx="10.31" ry="10.32" transform="translate(-252.51 1008.77) rotate(-89.51)"/><polygon class="cls-12" points="382.41 633.93 383.47 509.17 275.89 445.87 167.26 507.33 166.2 632.09 273.77 695.39 382.41 633.93"/><ellipse class="cls-20" cx="273.77" cy="695.39" rx="10.31" ry="10.32" transform="translate(-423.91 963.25) rotate(-89.51)"/><ellipse class="cls-20" cx="166.22" cy="629.88" rx="10.31" ry="10.32" transform="translate(-465.05 790.75) rotate(-89.51)"/><ellipse class="cls-20" cx="167.26" cy="507.71" rx="10.31" ry="10.32" transform="translate(-341.85 670.65) rotate(-89.51)"/><ellipse class="cls-20" cx="275.89" cy="445.87" rx="10.31" ry="10.32" transform="translate(-172.3 717.97) rotate(-89.51)"/><polygon class="cls-12" points="255.51 416.39 256.57 291.63 148.99 228.34 40.36 289.8 39.3 414.56 146.87 477.86 255.51 416.39"/><ellipse class="cls-20" cx="146.87" cy="477.86" rx="10.31" ry="10.32" transform="translate(-332.21 620.67) rotate(-89.51)"/><ellipse class="cls-20" cx="39.32" cy="412.35" rx="10.31" ry="10.32" transform="translate(-373.35 448.16) rotate(-89.51)"/><ellipse class="cls-20" cx="40.36" cy="290.18" rx="10.31" ry="10.32" transform="translate(-250.15 328.07) rotate(-89.51)"/><ellipse class="cls-20" cx="148.99" cy="228.34" rx="10.31" ry="10.32" transform="translate(-80.6 375.39) rotate(-89.51)"/><ellipse class="cls-20" cx="256.56" cy="292.01" rx="10.31" ry="10.32" transform="translate(-37.62 546.09) rotate(-89.51)"/><ellipse class="cls-20" cx="255.53" cy="414.18" rx="10.31" ry="10.32" transform="translate(-160.81 666.18) rotate(-89.51)"/><polygon class="cls-12" points="276.26 878.65 277.32 753.89 169.74 690.59 61.11 752.05 60.05 876.81 167.62 940.11 276.26 878.65"/><ellipse class="cls-20" cx="167.62" cy="940.11" rx="10.31" ry="10.32" transform="translate(-773.87 1099.75) rotate(-89.51)"/><ellipse class="cls-20" cx="60.07" cy="874.6" rx="10.31" ry="10.32" transform="translate(-815.01 927.24) rotate(-89.51)"/><ellipse class="cls-20" cx="61.11" cy="752.43" rx="10.31" ry="10.32" transform="translate(-691.82 807.15) rotate(-89.51)"/><ellipse class="cls-20" cx="169.74" cy="690.59" rx="10.31" ry="10.32" transform="translate(-522.26 854.46) rotate(-89.51)"/><ellipse class="cls-20" cx="277.31" cy="754.27" rx="10.31" ry="10.32" transform="translate(-479.28 1025.17) rotate(-89.51)"/><ellipse class="cls-20" cx="276.28" cy="876.43" rx="10.31" ry="10.32" transform="translate(-602.47 1145.26) rotate(-89.51)"/><polygon class="cls-12" points="142.26 1096.65 143.32 971.89 35.74 908.59 -72.89 970.05 -73.95 1094.81 33.62 1158.11 142.26 1096.65"/><ellipse class="cls-20" cx="35.74" cy="908.59" rx="10.31" ry="10.32" transform="translate(-873.12 936.62) rotate(-89.51)"/><ellipse class="cls-20" cx="143.31" cy="972.27" rx="10.31" ry="10.32" transform="translate(-830.13 1107.32) rotate(-89.51)"/></g><g class="cls-5"><g class="cls-6"><g class="cls-7"><polygon class="cls-8" points="1577.84 243.29 1520.9 271.68 1517.02 335.15 1570.09 370.25 1627.03 341.87 1630.9 278.39 1577.84 243.29"/></g><g class="cls-9"><polygon class="cls-8" points="1632.75 353.33 1575.81 381.71 1571.93 445.19 1624.99 480.28 1681.93 451.9 1685.81 388.43 1632.75 353.33"/></g></g><polygon class="cls-12" points="1622.47 26.53 1622.08 -37.07 1566.78 -68.52 1511.87 -36.38 1512.27 27.21 1567.57 58.67 1622.47 26.53"/><polygon class="cls-10" points="1644.14 -56.82 1643.43 26.72 1715.46 69.1 1788.21 27.95 1788.92 -55.59 1716.88 -97.98 1644.14 -56.82"/><polygon class="cls-11" points="1805.76 -55.45 1805.05 28.09 1877.08 70.48 1949.82 29.32 1950.53 -54.22 1878.5 -96.61 1805.76 -55.45"/><polygon class="cls-12" points="1569.67 83.89 1568.96 167.43 1641 209.81 1713.74 168.66 1714.45 85.12 1642.42 42.73 1569.67 83.89"/><polyline class="cls-12" points="1710.7 350.88 1709.4 351.62 1709.38 353.12"/><line class="cls-13" x1="1709.35" y1="357.66" x2="1709.24" y2="369.93"/><line class="cls-14" x1="1709.22" y1="372.2" x2="1708.5" y2="457.17"/><polyline class="cls-12" points="1708.48 459.45 1708.47 460.95 1709.76 461.71"/><line class="cls-15" x1="1713.68" y1="464.01" x2="1724.26" y2="470.24"/><line class="cls-16" x1="1726.22" y1="471.39" x2="1799.48" y2="514.5"/><polyline class="cls-12" points="1801.44 515.65 1802.73 516.41 1804.04 515.67"/><line class="cls-17" x1="1808" y1="513.44" x2="1818.68" y2="507.39"/><line class="cls-18" x1="1820.66" y1="506.27" x2="1894.65" y2="464.41"/><polyline class="cls-12" points="1896.63 463.29 1897.93 462.55 1897.94 461.05"/><line class="cls-13" x1="1897.98" y1="456.51" x2="1898.09" y2="444.24"/><line class="cls-14" x1="1898.11" y1="441.97" x2="1898.83" y2="357"/><polyline class="cls-12" points="1898.85 354.73 1898.86 353.23 1897.57 352.47"/><line class="cls-15" x1="1893.65" y1="350.16" x2="1883.07" y2="343.94"/><line class="cls-16" x1="1881.11" y1="342.78" x2="1807.84" y2="299.67"/><polyline class="cls-12" points="1805.89 298.52 1804.59 297.76 1803.29 298.5"/><line class="cls-17" x1="1799.33" y1="300.74" x2="1788.65" y2="306.78"/><line class="cls-18" x1="1786.67" y1="307.9" x2="1712.68" y2="349.76"/><polyline class="cls-12" points="1770.94 775.89 1769.63 776.63 1769.62 778.13"/><line class="cls-13" x1="1769.58" y1="782.67" x2="1769.48" y2="794.94"/><line class="cls-14" x1="1769.46" y1="797.21" x2="1768.74" y2="882.18"/><polyline class="cls-12" points="1768.72 884.45 1768.7 885.95 1770 886.72"/><line class="cls-15" x1="1773.92" y1="889.02" x2="1784.49" y2="895.24"/><line class="cls-16" x1="1786.45" y1="896.4" x2="1859.72" y2="939.51"/><polyline class="cls-12" points="1861.68 940.66 1862.97 941.42 1864.28 940.68"/><line class="cls-17" x1="1868.23" y1="938.44" x2="1878.92" y2="932.4"/><line class="cls-18" x1="1880.9" y1="931.28" x2="1954.88" y2="889.42"/><line class="cls-16" x1="1941.35" y1="767.79" x2="1868.08" y2="724.68"/><polyline class="cls-12" points="1866.12 723.53 1864.83 722.77 1863.53 723.5"/><line class="cls-17" x1="1859.57" y1="725.74" x2="1848.89" y2="731.79"/><line class="cls-18" x1="1846.91" y1="732.91" x2="1772.92" y2="774.77"/><polygon class="cls-19" points="1820.51 423.22 1819.86 499.66 1885.76 538.43 1952.32 500.78 1952.96 424.35 1887.06 385.57 1820.51 423.22"/><polygon class="cls-11" points="1725.46 85.21 1724.75 168.75 1796.79 211.14 1869.53 169.98 1870.24 86.44 1798.2 44.05 1725.46 85.21"/><polygon class="cls-11" points="1651.88 225.35 1651.17 308.9 1723.2 351.28 1795.94 310.13 1796.65 226.58 1724.62 184.2 1651.88 225.35"/><polygon class="cls-11" points="1723.08 365.82 1722.37 449.37 1794.4 491.75 1867.14 450.6 1867.85 367.05 1795.82 324.67 1723.08 365.82"/><polygon class="cls-11" points="1794.22 512.55 1793.51 596.09 1865.55 638.48 1938.29 597.32 1939 513.78 1866.97 471.39 1794.22 512.55"/><polygon class="cls-11" points="1720.65 651.88 1719.94 735.42 1791.97 777.81 1864.71 736.65 1865.42 653.11 1793.39 610.73 1720.65 651.88"/><polygon class="cls-12" points="1639.31 511.24 1638.61 594.78 1710.64 637.16 1783.38 596.01 1784.09 512.47 1712.06 470.08 1639.31 511.24"/><polygon class="cls-12" points="1887.22 367.22 1886.51 450.76 1958.54 493.14 2031.28 451.99 2031.99 368.45 1959.96 326.06 1887.22 367.22"/><polygon class="cls-12" points="1807.67 226.68 1806.96 310.22 1878.99 352.6 1951.73 311.45 1952.44 227.91 1880.41 185.52 1807.67 226.68"/><polygon class="cls-11" points="1881.25 86.53 1880.54 170.07 1952.57 212.46 2025.32 171.3 2026.03 87.76 1953.99 45.38 1881.25 86.53"/><ellipse class="cls-20" cx="1576.55" cy="560.75" rx="10.31" ry="10.32" transform="translate(1002.44 2132.48) rotate(-89.51)"/><ellipse class="cls-20" cx="1577.59" cy="438.58" rx="10.31" ry="10.32" transform="translate(1125.63 2012.39) rotate(-89.51)"/><polygon class="cls-12" points="1577.6 436.37 1576.54 561.13 1684.12 624.43 1792.75 562.96 1793.81 438.2 1686.24 374.91 1577.6 436.37"/><ellipse class="cls-20" cx="1686.24" cy="374.91" rx="10.31" ry="10.32" transform="translate(1297.03 2057.9) rotate(-89.51)"/><ellipse class="cls-20" cx="1793.79" cy="440.42" rx="10.31" ry="10.32" transform="translate(1338.17 2230.41) rotate(-89.51)"/><ellipse class="cls-20" cx="1792.75" cy="562.58" rx="10.31" ry="10.32" transform="translate(1214.97 2350.5) rotate(-89.51)"/><ellipse class="cls-20" cx="1684.12" cy="624.43" rx="10.31" ry="10.32" transform="translate(1045.42 2303.18) rotate(-89.51)"/><polygon class="cls-12" points="1704.5 653.9 1703.44 778.66 1811.02 841.96 1919.65 780.5 1920.71 655.74 1813.14 592.44 1704.5 653.9"/><ellipse class="cls-20" cx="1813.14" cy="592.44" rx="10.31" ry="10.32" transform="translate(1205.33 2400.48) rotate(-89.51)"/><ellipse class="cls-20" cx="1920.69" cy="657.95" rx="10.31" ry="10.32" transform="translate(1246.47 2572.99) rotate(-89.51)"/><ellipse class="cls-20" cx="1919.65" cy="780.12" rx="10.31" ry="10.32" transform="translate(1123.27 2693.08) rotate(-89.51)"/><ellipse class="cls-20" cx="1811.02" cy="841.96" rx="10.31" ry="10.32" transform="translate(953.72 2645.76) rotate(-89.51)"/><ellipse class="cls-20" cx="1703.45" cy="778.28" rx="10.31" ry="10.32" transform="translate(910.73 2475.06) rotate(-89.51)"/><ellipse class="cls-20" cx="1704.49" cy="656.11" rx="10.31" ry="10.32" transform="translate(1033.93 2354.97) rotate(-89.51)"/><polygon class="cls-12" points="1683.76 191.65 1682.69 316.41 1790.27 379.71 1898.9 318.24 1899.96 193.48 1792.39 130.19 1683.76 191.65"/><ellipse class="cls-20" cx="1792.39" cy="130.19" rx="10.31" ry="10.32" transform="translate(1646.99 1921.41) rotate(-89.51)"/><ellipse class="cls-20" cx="1899.94" cy="195.7" rx="10.31" ry="10.32" transform="translate(1688.13 2093.91) rotate(-89.51)"/><ellipse class="cls-20" cx="1898.91" cy="317.86" rx="10.31" ry="10.32" transform="translate(1564.93 2214) rotate(-89.51)"/><ellipse class="cls-20" cx="1790.27" cy="379.71" rx="10.31" ry="10.32" transform="translate(1395.38 2166.69) rotate(-89.51)"/><ellipse class="cls-20" cx="1682.7" cy="316.03" rx="10.31" ry="10.32" transform="translate(1352.4 1995.98) rotate(-89.51)"/><ellipse class="cls-20" cx="1683.74" cy="193.86" rx="10.31" ry="10.32" transform="translate(1475.59 1875.89) rotate(-89.51)"/><polygon class="cls-12" points="1817.76 -26.35 1816.69 98.41 1924.27 161.71 2032.9 100.24 2033.96 -24.52 1926.39 -87.81 1817.76 -26.35"/><ellipse class="cls-20" cx="1924.27" cy="161.71" rx="10.31" ry="10.32" transform="translate(1746.23 2084.53) rotate(-89.51)"/><ellipse class="cls-20" cx="1816.7" cy="98.03" rx="10.31" ry="10.32" transform="translate(1703.25 1913.83) rotate(-89.51)"/></g><ellipse class="cls-21" cx="959.92" cy="776.34" rx="259.06" ry="72.1"/><ellipse class="cls-22" cx="960.01" cy="763.08" rx="162.76" ry="45.3"/><path class="cls-23" d="M1292.88,948.44c0,54.59-139.91,107.41-346.87,107.41S599.27,1001.56,599.27,947,744.49,842.85,951.46,842.85,1292.88,893.86,1292.88,948.44Z"/><g class="cls-24"><path class="cls-25" d="M1293.05,810.27c0,54.37-139.35,107-345.49,107S602.21,863.18,602.21,808.81,746.85,705.1,953,705.1,1293.05,755.9,1293.05,810.27Z"/></g><g class="cls-24"><path class="cls-25" d="M1293,796.41c0,54.37-139.35,107-345.49,107S602.13,849.32,602.13,795,746.77,691.24,952.91,691.24,1293,742,1293,796.41Z"/></g><g class="cls-24"><path class="cls-25" d="M1293.26,823.68c0,54.37-139.35,107-345.49,107S602.42,876.59,602.42,822.22,747.06,718.51,953.2,718.51,1293.26,769.31,1293.26,823.68Z"/></g><path class="cls-26" d="M867.9,800.42s-132.86-28.76-34-66"/><path class="cls-26" d="M1099.68,786.35s56.28-25.18-10.46-50.82"/><line class="cls-27" x1="602.46" y1="775.09" x2="1292.43" y2="775.09"/><line class="cls-27" x1="959.45" y1="887.96" x2="959.45" y2="675.92"/><line class="cls-27" x1="703.3" y1="856.11" x2="1188.74" y2="704.49"/><line class="cls-27" x1="1191.16" y1="856.74" x2="732.5" y2="698.57"/><path class="cls-28" d="M1292.78,950.88h0c-1.52,56.56-127.19,104.86-330.52,104.86-201.5,0-359.05-50.33-363-106.38l.35,1.53L427.06,1191.76,1494,1204.19Z"/><path class="cls-29" d="M1124.52,765a12.14,12.14,0,0,0-2-7l863-469c13.81-35.93,28.57-90.91,15-151-102-451.71-1699.38-725-2065-175-65.94,99.2-80.57,208.26-82,288L796.77,758.34a11.59,11.59,0,0,0-2.55,7.26c.94,21.33,79.09,38,138.3,41.41C1021.67,812.16,1123.07,790.54,1124.52,765Z"/><rect class="cls-1" x="-0.52" width="1921.03" height="1080"/><path class="cls-30" d="M1293,781.06c0,54.37-139.35,107-345.49,107S602.13,834,602.13,779.6,746.77,675.89,952.91,675.89,1293,726.69,1293,781.06Z"/><path class="cls-31" d="M1293,781.06c0,54.37-139.35,107-345.49,107S602.13,834,602.13,779.6,746.77,675.89,952.91,675.89,1293,726.69,1293,781.06Z"/><g class="cls-24"><path class="cls-32" d="M1308.15,949.85c0,61.84-145.62,121.67-361,121.67S586.24,1010,586.24,948.19s151.15-118,366.56-118S1308.15,888,1308.15,949.85Z"/></g><path class="cls-33" d="M1422.6,828.48c0,78.61-191,154.68-473.43,154.68S475.93,905,475.93,826.37,674.13,676.42,956.61,676.42,1422.6,749.87,1422.6,828.48Z"/></g></g></g></svg>