<svg xmlns="http://www.w3.org/2000/svg" viewBox="0 0 74.79 74.79"><defs><style>.cls-1{fill:#b455ff;}</style></defs><title>SmallLogo</title><g id="Layer_2" data-name="Layer 2"><g id="Layer_2-2" data-name="Layer 2"><path class="cls-1" d="M40.37,8.44a27,27,0,0,0-8.82.78,23.71,23.71,0,0,0-11.62,6.46c-5.13,5.41-6.55,11.6-4,18.32s7.79,10.82,14.9,13.3c1.05.37,2.15.63,3.22.94l-.92,10.2c1.6,0,3.1,0,4.61,0,.12,0,.33-.22.34-.36.16-1.62.28-3.24.43-4.87.13-1.45.26-2.9.4-4.41H50.26c-.29-1.36-.61-2.65-.83-3.94-.08-.49-.3-.59-.8-.59-2.82,0-5.64,0-8.46,0h-.89l1.21-13.2c1.29.43,2.46.75,3.57,1.19,5.1,2,8.87,5.27,10.75,10.1A12,12,0,0,1,54,53.14c-3,5.12-8,7.69-14.11,8.53a23.4,23.4,0,0,1-11.3-1.26,19,19,0,0,1-10.16-7.94c-.68-1.13-1.16-2.35-1.74-3.56h-5c0,.07,0,.12,0,.15a20.14,20.14,0,0,0,8.26,12,28.56,28.56,0,0,0,20.82,5.1,24.52,24.52,0,0,0,13.8-6.05c4.79-4.33,6.86-9.55,6-15.66A19,19,0,0,0,54.13,33a26.51,26.51,0,0,0-12.67-6.31c-.47-.1-.59-.27-.53-.68.09-.59.12-1.19.18-1.78.17-1.7.34-3.41.49-5.11.08-.85.11-1.71.17-2.58H36.93L36.06,26H25.16l1,4.56h9.52l-1.17,13a21.06,21.06,0,0,1-10.28-5.7c-3.12-3.26-4.77-7-4.27-11.36s2.84-7.67,6.69-10.15a22,22,0,0,1,16.83-2.88c6.23,1.27,11,4.32,14,9.53.08.14.28.33.42.33,1.71,0,3.41,0,5.22,0-.25-.57-.42-1.06-.67-1.52a23.44,23.44,0,0,0-1.39-2.41C56.24,12.56,49.18,9.11,40.37,8.44Z"/><path class="cls-1" d="M37.4,74.79A37.4,37.4,0,0,1,22.84,2.94,37.4,37.4,0,0,1,52,71.85,37.16,37.16,0,0,1,37.4,74.79Zm0-71A33.64,33.64,0,1,0,71,37.4,33.68,33.68,0,0,0,37.4,3.75Z"/></g></g></svg>