<svg xmlns="http://www.w3.org/2000/svg" viewBox="0 0 1066.92 529.27"><defs><style>.cls-1{isolation:isolate;}.cls-2{opacity:0.77;}.cls-12,.cls-13,.cls-3,.cls-4,.cls-7,.cls-8,.cls-9{fill:none;}.cls-3{stroke:#730b99;opacity:0.5;}.cls-12,.cls-13,.cls-14,.cls-3,.cls-4,.cls-5,.cls-7,.cls-8,.cls-9{stroke-miterlimit:10;}.cls-4,.cls-8{stroke:#a10dd1;}.cls-13,.cls-4,.cls-7,.cls-9{stroke-width:2px;}.cls-14,.cls-5{fill:#7a18a8;fill-opacity:0.2;stroke:#7316a8;}.cls-5{stroke-dasharray:4 5 4 5 4 5;}.cls-6{opacity:0.75;}.cls-12,.cls-13,.cls-7{stroke:#8016a8;}.cls-7{stroke-dasharray:19.87 9.93 19.87 9.93 19.87 9.93;}.cls-8{stroke-width:6px;}.cls-9{stroke:#9409ce;opacity:0.35;}.cls-10{fill:#8e2fd1;opacity:0.3;mix-blend-mode:screen;}.cls-11{fill:#7e18a8;opacity:0.2;}.cls-12{stroke-dasharray:4.02 5.03 4.02 5.03 4.02 5.03;}.cls-13{stroke-dasharray:19.86 9.93 19.86 9.93 19.86 9.93;}.cls-14{stroke-width:3px;}</style></defs><title>Projector</title><g class="cls-1"><g id="Layer_2" data-name="Layer 2"><g id="text"><ellipse class="cls-3" cx="532.86" cy="101.42" rx="259.06" ry="72.1"/><ellipse class="cls-4" cx="532.96" cy="88.16" rx="162.76" ry="45.3"/><path class="cls-5" d="M865.82,273.53c0,54.59-139.91,107.41-346.87,107.41S172.22,326.65,172.22,272.06,317.44,167.94,524.4,167.94,865.82,218.94,865.82,273.53Z"/><g class="cls-6"><path class="cls-7" d="M866,135.36c0,54.37-139.35,107-345.49,107S175.15,188.27,175.15,133.9,319.8,30.19,525.94,30.19,866,81,866,135.36Z"/></g><g class="cls-6"><path class="cls-7" d="M865.91,121.5c0,54.37-139.35,107-345.49,107S175.07,174.41,175.07,120,319.72,16.33,525.86,16.33,865.91,67.13,865.91,121.5Z"/></g><g class="cls-6"><path class="cls-7" d="M866.21,148.76c0,54.37-139.35,107-345.49,107S175.37,201.67,175.37,147.3,320,43.59,526.15,43.59,866.21,94.39,866.21,148.76Z"/></g><path class="cls-8" d="M440.84,125.5s-132.86-28.76-34-66"/><path class="cls-8" d="M672.62,111.43s56.28-25.18-10.46-50.82"/><line class="cls-9" x1="175.41" y1="100.17" x2="865.37" y2="100.17"/><line class="cls-9" x1="532.4" y1="213.04" x2="532.4" y2="1"/><line class="cls-9" x1="276.25" y1="181.19" x2="761.69" y2="29.57"/><line class="cls-9" x1="764.1" y1="181.82" x2="305.44" y2="23.65"/><path class="cls-10" d="M865.72,276h0C864.2,332.53,738.53,380.82,535.2,380.82c-201.5,0-359.05-50.33-363-106.38l.35,1.53L0,516.85l1066.92,12.43Z"/><path class="cls-11" d="M865.91,106.15c0,54.37-139.35,107-345.49,107S175.07,159.05,175.07,104.68,319.72,1,525.86,1,865.91,51.78,865.91,106.15Z"/><path class="cls-12" d="M865.91,106.15c0,54.37-139.35,107-345.49,107S175.07,159.05,175.07,104.68,319.72,1,525.86,1,865.91,51.78,865.91,106.15Z"/><g class="cls-6"><path class="cls-13" d="M881.09,274.93c0,61.84-145.62,121.67-361,121.67s-360.88-61.5-360.88-123.34,151.15-118,366.56-118S881.09,213.1,881.09,274.93Z"/></g><path class="cls-14" d="M995.54,153.56c0,78.61-191,154.68-473.43,154.68S48.87,230.06,48.87,151.45,247.08,1.5,529.55,1.5,995.54,75,995.54,153.56Z"/></g></g></g></svg>