<svg xmlns="http://www.w3.org/2000/svg" xmlns:xlink="http://www.w3.org/1999/xlink" viewBox="0 0 2040 1206.19"><defs><style>.cls-1{isolation:isolate;}.cls-2{opacity:0.77;}.cls-13,.cls-14,.cls-3,.cls-4,.cls-7,.cls-8,.cls-9{fill:none;}.cls-3{stroke:#730b99;opacity:0.5;}.cls-13,.cls-14,.cls-15,.cls-3,.cls-4,.cls-5,.cls-7,.cls-8,.cls-9{stroke-miterlimit:10;}.cls-4,.cls-8{stroke:#a10dd1;}.cls-14,.cls-4,.cls-7,.cls-9{stroke-width:2px;}.cls-15,.cls-5{fill:#7a18a8;fill-opacity:0.2;stroke:#7316a8;}.cls-5{stroke-dasharray:4 5 4 5 4 5;}.cls-6{opacity:0.75;}.cls-13,.cls-14,.cls-7{stroke:#8016a8;}.cls-7{stroke-dasharray:19.87 9.93 19.87 9.93 19.87 9.93;}.cls-8{stroke-width:6px;}.cls-9{stroke:#9409ce;opacity:0.35;}.cls-10{fill:#8e2fd1;opacity:0.3;mix-blend-mode:screen;}.cls-11{opacity:0.91;mix-blend-mode:lighten;fill:url(#linear-gradient);}.cls-12{fill:#7e18a8;opacity:0.2;}.cls-13{stroke-dasharray:4.02 5.03 4.02 5.03 4.02 5.03;}.cls-14{stroke-dasharray:19.86 9.93 19.86 9.93 19.86 9.93;}.cls-15{stroke-width:3px;}</style><linearGradient id="linear-gradient" x1="1020" y1="809.77" x2="1020" gradientUnits="userSpaceOnUse"><stop offset="0" stop-color="#70a"/><stop offset="1" stop-color="#225" stop-opacity="0"/></linearGradient></defs><title>ProjectorwLight</title><g class="cls-1"><g id="Layer_2" data-name="Layer 2"><g id="text"><ellipse class="cls-3" cx="1014.4" cy="778.34" rx="259.06" ry="72.1"/><ellipse class="cls-4" cx="1014.5" cy="765.08" rx="162.76" ry="45.3"/><path class="cls-5" d="M1347.36,950.44c0,54.59-139.91,107.41-346.87,107.41S653.75,1003.56,653.75,949,799,844.85,1005.94,844.85,1347.36,895.86,1347.36,950.44Z"/><g class="cls-6"><path class="cls-7" d="M1347.53,812.27c0,54.37-139.35,107-345.49,107S656.69,865.18,656.69,810.81,801.34,707.1,1007.47,707.1,1347.53,757.9,1347.53,812.27Z"/></g><g class="cls-6"><path class="cls-7" d="M1347.45,798.41c0,54.37-139.35,107-345.49,107S656.61,851.32,656.61,797s144.64-103.71,350.78-103.71S1347.45,744,1347.45,798.41Z"/></g><g class="cls-6"><path class="cls-7" d="M1347.74,825.68c0,54.37-139.35,107-345.49,107S656.9,878.59,656.9,824.22s144.64-103.71,350.78-103.71S1347.74,771.31,1347.74,825.68Z"/></g><path class="cls-8" d="M922.38,802.42s-132.86-28.76-34-66"/><path class="cls-8" d="M1154.16,788.35s56.28-25.18-10.46-50.82"/><line class="cls-9" x1="656.95" y1="777.09" x2="1346.91" y2="777.09"/><line class="cls-9" x1="1013.94" y1="889.96" x2="1013.94" y2="677.92"/><line class="cls-9" x1="757.79" y1="858.11" x2="1243.23" y2="706.49"/><line class="cls-9" x1="1245.64" y1="858.74" x2="786.98" y2="700.57"/><path class="cls-10" d="M1347.26,952.88h0c-1.52,56.56-127.19,104.86-330.52,104.86-201.5,0-359.05-50.33-363-106.38l.35,1.53L481.54,1193.76l1066.92,12.43Z"/><path class="cls-11" d="M1179,767a12.14,12.14,0,0,0-2-7c272.46-252.82,590.54-507.18,863-760H0L851.25,760.34a11.59,11.59,0,0,0-2.55,7.26c.94,21.33,79.09,38,138.3,41.41C1076.15,814.16,1177.55,792.54,1179,767Z"/><path class="cls-12" d="M1347.45,783.06c0,54.37-139.35,107-345.49,107S656.61,836,656.61,781.6s144.64-103.71,350.78-103.71S1347.45,728.69,1347.45,783.06Z"/><path class="cls-13" d="M1347.45,783.06c0,54.37-139.35,107-345.49,107S656.61,836,656.61,781.6s144.64-103.71,350.78-103.71S1347.45,728.69,1347.45,783.06Z"/><g class="cls-6"><path class="cls-14" d="M1362.63,951.85c0,61.84-145.62,121.67-361,121.67S640.72,1012,640.72,950.19s151.15-118,366.56-118S1362.63,890,1362.63,951.85Z"/></g><path class="cls-15" d="M1477.08,830.48c0,78.61-191,154.68-473.43,154.68S530.41,907,530.41,828.37s198.21-149.95,480.68-149.95S1477.08,751.87,1477.08,830.48Z"/></g></g></g></svg>